<?xml version="1.0" encoding="UTF-8"?>
<svg xmlns="http://www.w3.org/2000/svg" viewBox="0 0 240 240">
  <defs>
    <style>
      .cls-1 {
        fill-rule: evenodd;
      }

      .cls-1, .cls-2 {
        fill: #f9aa26;
      }

      .cls-3 {
        fill: none;
      }

      .cls-4 {
        fill: #bdbdbd;
      }
    </style>
  </defs>
  <g id="orientConstraint">
    <rect class="cls-3" width="240" height="240"/>
    <g>
      <g>
        <path d="M49.11,97.52v98.3h32.14v8.98h-32.14v.02h-8.52v-107.29h8.52M57.63,88.54h-25.56v125.25h25.56v-.02h32.14v-26.93h-32.14v-98.3h0Z"/>
        <polygon class="cls-1" points="37.78 207.69 37.78 113.64 52.08 113.64 52.08 193.15 79.07 193.15 79.07 207.67 52.08 207.67 48.51 207.69 37.78 207.69"/>
      </g>
      <g>
        <path d="M161.44,67.68v55.32H21.25v-55.32h140.19M169.96,59.17H12.73v72.35h157.23V59.17h0Z"/>
        <rect class="cls-4" x="18.47" y="64.83" width="145.74" height="61.03"/>
      </g>
      <g>
        <path d="M176.08,174.48v55.32h-97.98v-55.32h97.98M184.6,165.96h-115.01v72.35h115.01v-72.35h0Z"/>
        <rect class="cls-4" x="75.28" y="172.38" width="103.62" height="59.51"/>
      </g>
    </g>
  </g>
  <g id="Layer_3" data-name="Layer 3">
    <g>
      <path class="cls-2" d="M163.9,114.24c-9.78,0-18.98-3.81-25.91-10.74-14.29-14.29-14.29-37.53,0-51.82l38.36-38.36c5.14-5.14,11.97-7.97,19.24-7.97s14.1,2.83,19.24,7.97c5.14,5.14,7.97,11.97,7.97,19.24s-2.83,14.1-7.97,19.24l-36.69,36.69c-3.36,3.36-7.82,5.2-12.57,5.2s-9.21-1.85-12.57-5.2c-6.93-6.93-6.93-18.2,0-25.13l30.02-30.02c1.57-1.57,3.67-2.44,5.9-2.44s4.32.87,5.9,2.44c3.25,3.25,3.25,8.54,0,11.79l-30.02,30.02c-.42.42-.42,1.13,0,1.55.27.27.6.31.78.31s.5-.04.78-.31l36.69-36.69c4.11-4.11,4.11-10.79,0-14.89-1.99-1.99-4.63-3.08-7.45-3.08s-5.46,1.09-7.45,3.08l-38.36,38.36c-7.78,7.78-7.78,20.45,0,28.24,3.77,3.77,8.79,5.85,14.12,5.85,5.33,0,10.35-2.08,14.12-5.85l31.69-31.69c1.57-1.57,3.67-2.44,5.9-2.44s4.32.87,5.89,2.44c3.25,3.25,3.25,8.54,0,11.79l-31.69,31.69c-6.92,6.93-16.13,10.74-25.91,10.74Z"/>
      <path d="M195.58,7.85c6.32,0,12.64,2.41,17.47,7.24,9.65,9.65,9.65,25.29,0,34.94l-36.69,36.69c-2.98,2.98-6.89,4.47-10.8,4.47s-7.82-1.49-10.8-4.47c-5.96-5.96-5.96-15.64,0-21.6l30.02-30.02c1.14-1.14,2.63-1.7,4.13-1.7s2.99.57,4.13,1.7c2.27,2.27,2.27,5.98,0,8.26l-30.02,30.02c-1.4,1.4-1.4,3.69,0,5.09.7.7,1.62,1.05,2.54,1.05s1.84-.35,2.54-1.05l36.69-36.69c5.09-5.09,5.09-13.34,0-18.43-2.54-2.54-5.88-3.82-9.21-3.82s-6.67,1.27-9.21,3.82l-38.36,38.36c-8.78,8.78-8.78,22.99,0,31.77,4.39,4.39,10.14,6.58,15.89,6.58s11.5-2.19,15.89-6.58l31.69-31.69c1.14-1.14,2.63-1.7,4.13-1.7s2.99.57,4.13,1.7c2.27,2.27,2.27,5.98,0,8.26l-31.69,31.69c-6.67,6.67-15.41,10.01-24.14,10.01s-17.47-3.34-24.14-10.01c-13.34-13.34-13.34-34.94,0-48.28l38.36-38.36c4.83-4.83,11.15-7.24,17.47-7.24M195.58,2.85c-7.93,0-15.39,3.09-21.01,8.7l-38.36,38.36c-7.4,7.4-11.47,17.23-11.47,27.68s4.07,20.28,11.47,27.68c7.4,7.4,17.23,11.47,27.68,11.47s20.28-4.07,27.68-11.47l31.69-31.69c2.04-2.04,3.17-4.76,3.17-7.66s-1.13-5.62-3.17-7.66c-2.04-2.04-4.76-3.17-7.66-3.17-.18,0-.36,0-.54.01l1.53-1.53c11.58-11.58,11.58-30.43,0-42.01-5.61-5.61-13.07-8.7-21.01-8.7h0ZM188.37,28.42l1.53-1.53c1.52-1.52,3.53-2.35,5.68-2.35s4.16.83,5.68,2.35c1.52,1.52,2.35,3.53,2.35,5.68s-.83,4.16-2.35,5.68l-1.53,1.53c0-.18.01-.36.01-.54,0-2.9-1.13-5.62-3.17-7.66-2.04-2.04-4.76-3.17-7.66-3.17-.18,0-.36,0-.54.01h0Z"/>
    </g>
  </g>
</svg>