<?xml version="1.0" encoding="UTF-8"?>
<svg xmlns="http://www.w3.org/2000/svg" viewBox="0 0 240 240">
  <defs>
    <style>
      .cls-1 {
        fill: none;
        stroke: #000;
        stroke-miterlimit: 10;
        stroke-width: 5.21px;
      }

      .cls-2 {
        fill: #444;
      }

      .cls-3 {
        fill: #f9aa26;
      }
    </style>
  </defs>
  <g id="background">
    <path class="cls-2" d="M0,0v240h240V0H0ZM186.16,87.47l-.07.07c-5.01,14.3-18.29,24.85-34.36,25.6-3.47.16-6.85-.15-10.08-.86l7.05,6.42c2.21,2.15,3.47,4.91,3.61,7.86.02.42.04.84.05.98-.26,3.39-2.08,6.58-4.81,8.54l-104.44,73.67c-4.37,3.02-10.16,2.73-14.13-.88-2.21-2.01-3.46-4.77-3.6-7.72-.1-2.11.36-4.24,1.54-6.13l63.96-110.5c1.69-2.9,4.7-4.87,8.05-5.45,3.35-.58,6.79.53,9.29,2.8l5.23,4.76c-1.01-3.15-1.64-6.49-1.81-9.96-1-21.14,15.33-39.08,36.47-40.08.02,0,.03,0,.05,0,.02,0,.03,0,.05,0,21.08-.99,39.04,15.35,40.04,36.43.24,5.07-.52,9.94-2.09,14.44Z"/>
  </g>
  <g id="Layer_2" data-name="Layer 2">
    <path class="cls-1" d="M186.16,87.47c1.58-4.5,2.33-9.37,2.09-14.44-.99-21.08-18.95-37.43-40.04-36.43-21.08.99-37.43,18.95-36.43,40.04.17,3.56.83,6.97,1.89,10.2l-5.45-4.96c-2.5-2.28-5.94-3.38-9.29-2.8-3.35.58-6.36,2.55-8.05,5.45l-63.96,110.5c-1.18,1.89-1.64,4.02-1.54,6.13.14,2.95,1.4,5.71,3.6,7.72,3.97,3.62,9.76,3.91,14.13.88l104.44-73.67c2.73-1.96,4.55-5.14,4.81-8.54l-.05-.98c-.14-2.95-1.4-5.71-3.61-7.86l-7.22-6.57c3.31.76,6.78,1.09,10.33.93,4.81-.23,9.38-1.33,13.54-3.16"/>
    <circle class="cls-1" cx="149.93" cy="74.88" r="38.32"/>
  </g>
  <g id="Layer_4" data-name="Layer 4">
    <g>
      <path class="cls-3" d="M163.23,212.77c-1.1,0-2-.9-2-2v-18.17h-17.24c-1.1,0-2-.9-2-2v-12.2c0-1.1.9-2,2-2h17.24v-18c0-1.1.9-2,2-2h12.54c1.1,0,2,.9,2,2v18h17.23c1.1,0,2,.9,2,2v12.2c0,1.1-.9,2-2,2h-17.23v18.17c0,1.1-.9,2-2,2h-12.54Z"/>
      <path d="M175.77,158.4v20h19.23v12.2h-19.23v20.17h-12.54v-20.17h-19.24v-12.2h19.24v-20h12.54M175.77,154.4h-12.54c-2.21,0-4,1.79-4,4v16h-15.24c-2.21,0-4,1.79-4,4v12.2c0,2.21,1.79,4,4,4h15.24v16.17c0,2.21,1.79,4,4,4h12.54c2.21,0,4-1.79,4-4v-16.17h15.23c2.21,0,4-1.79,4-4v-12.2c0-2.21-1.79-4-4-4h-15.23v-16c0-2.21-1.79-4-4-4h0Z"/>
    </g>
  </g>
</svg>