<?xml version="1.0" encoding="UTF-8"?>
<svg id="Layer_1" data-name="Layer 1" xmlns="http://www.w3.org/2000/svg" viewBox="0 0 121.8417 149.8563">
  <defs>
    <style>
      .cls-1 {
        stroke-miterlimit: 10;
        stroke-width: 2px;
      }

      .cls-1, .cls-2 {
        fill: #bdbdbd;
      }

      .cls-1, .cls-3 {
        stroke: #000;
      }

      .cls-3 {
        fill: none;
        stroke-linejoin: round;
      }

      .cls-4 {
        fill: #f9aa26;
      }
    </style>
  </defs>
  <g>
    <path class="cls-2" d="M113.5965,23.1758c-1.6076-1.5966-3.7437-2.4885-6.0119-2.4995l-29.1126-.044c-.4074,0-.7487-.3194-.7818-.7378l-.5065-6.4853c-.022-2.1251-.7928-3.975-2.2132-5.4063-1.4314-1.4204-3.3363-2.2132-5.3623-2.2132l-17.298-.033c-2.026,0-3.9309.7927-5.3623,2.2132-1.4093,1.3983-2.2022,3.2592-2.2352,5.2412l-.5395,6.6395c-.022.4074-.3634.7267-.7708.7267h-.022l-29.1016-.0661c-4.7016,0-8.5003,3.8318-8.5224,8.5004v1.1011c0,.3964.1431.7597.4294,1.046.2753.2642.6496.4294,1.046.4294l107.3774.1872c.8038,0,1.4754-.6716,1.4754-1.4755v-1.0901c0-2.2682-.8809-4.4153-2.4884-6.0339ZM71.6674,17.2079c-.1542.1542-.3634.2533-.5836.2533l-20.2819-.055c-.2202,0-.4404-.0881-.5835-.2533-.1431-.1542-.2202-.3743-.2092-.6056,0,0,.2422-2.9729.2422-3.2262,0-.5285.2202-1.035.6056-1.4314.3964-.3964.9029-.6056,1.4534-.6056l17.298.033c.5395,0,1.046.2202,1.4424.6056.3854.3964.5835.9029.5835,1.4534.022.2313.2423,3.2262.2423,3.2262.011.2202-.0661.4405-.2092.6056Z"/>
    <g>
      <path class="cls-4" d="M7.2201,36.8448c-1.7612,0-3.4951-.7236-4.7568-1.9854-1.2666-1.2793-1.9634-2.9727-1.9634-4.7686v-1.0791c.0229-7.5859,6.2041-13.7568,13.7793-13.7568l24.9946.0537.1841-2.3682c.0557-3.2153,1.3979-6.313,3.7783-8.6934,2.4399-2.417,5.6577-3.7471,9.063-3.7471l17.3101.0327c3.4585,0,6.6821,1.3438,9.0767,3.7837,2.3745,2.374,3.709,5.5317,3.7544,8.8877l.1719,2.1836,24.9839.0322c3.6826.0107,7.1362,1.4561,9.7251,4.0684,2.6025,2.5908,4.0312,6.0488,4.0205,9.7344v1.0879c-.0244,3.708-3.0449,6.7217-6.7324,6.7217l-107.3892-.1875ZM14.2782,21.0108c-4.4023,0-8.001,3.5908-8.0215,8.0029v1.0986c0,.2715.0952.5049.2827.6924.1851.1777.4399.2832.6929.2832l107.3779.1875c.5283,0,.9746-.4463.9746-.9756v-1.0898c0-2.1426-.832-4.1611-2.3428-5.6816-1.5156-1.5049-3.5264-2.3418-5.6602-2.3525l-29.1108-.0439c-.6636,0-1.2261-.5264-1.2793-1.1973l-.5063-6.4863c-.0225-2.0015-.7373-3.751-2.0698-5.0933-1.3413-1.3311-3.1206-2.0654-5.0073-2.0654l-17.2988-.0332c-1.8857,0-3.6655.7344-5.0093,2.0684-1.3149,1.3052-2.0566,3.0435-2.0874,4.895l-.541,6.6709c-.0356.6592-.5933,1.1865-1.269,1.1865l-29.1245-.0664Z"/>
      <path d="M52.2994,1l17.309.033c3.3032,0,6.4083,1.2773,8.7205,3.6336,2.2792,2.2792,3.5675,5.3072,3.6116,8.5444l.2092,2.6756,25.446.033c3.5344.011,6.8707,1.3984,9.3702,3.9199,2.5104,2.4995,3.8868,5.8467,3.8758,9.3812v1.0901c-.022,3.4243-2.8077,6.2211-6.2321,6.2211l-107.3884-.1872c-1.6296,0-3.2372-.6716-4.4043-1.8388-1.1671-1.1782-1.8168-2.7527-1.8168-4.4153v-1.079c.022-7.3112,5.9678-13.257,13.279-13.257l25.457.055.2202-2.8298c.0551-3.1051,1.3543-6.1,3.6336-8.3792,2.3343-2.3123,5.4283-3.6005,8.7096-3.6005M43.3806,20.5772l-29.1015-.0661c-4.7016,0-8.5003,3.8318-8.5224,8.5004v1.1011c0,.3964.1431.7598.4294,1.0461.2753.2642.6496.4294,1.046.4294l107.3774.1872c.8038,0,1.4754-.6716,1.4754-1.4755v-1.0901c0-2.2682-.8809-4.4153-2.4884-6.0339-1.6076-1.5966-3.7437-2.4885-6.0119-2.4995l-29.1126-.044c-.4074,0-.7487-.3194-.7818-.7378l-.5065-6.4853c-.022-2.1251-.7928-3.9749-2.2132-5.4063-1.4314-1.4204-3.3363-2.2132-5.3623-2.2132l-17.298-.033c-2.026,0-3.9309.7927-5.3623,2.2132-1.4093,1.3983-2.2022,3.2592-2.2351,5.2412l-.5395,6.6395c-.022.4074-.3634.7267-.7708.7267h-.0221M52.3013,0h-.0019c-3.5379,0-6.8809,1.3815-9.4133,3.8901-2.4679,2.4678-3.8613,5.6766-3.9291,9.0413l-.146,1.8761-24.5298-.053C6.4292,14.7545.0237,21.1488,0,29.0085v1.0821c0,1.93.7481,3.748,2.1064,5.1191,1.358,1.358,3.2211,2.135,5.1147,2.135l107.3866.1872c3.964,0,7.2083-3.2365,7.2338-7.2147v-1.0965c.0119-3.8161-1.4691-7.4006-4.1702-10.0899-2.6785-2.7021-6.2573-4.1993-10.0727-4.2112l-24.5241-.0318-.1348-1.7234c-.0558-3.4745-1.4414-6.7425-3.9039-9.205C76.5537,1.4298,73.2032.033,69.6083.033l-17.3071-.033h0ZM43.3783,21.5772h.0243c.9414,0,1.7186-.7347,1.7693-1.6727l.5377-6.6125c.0017-.0214.0028-.0429.0031-.0644.0286-1.7202.7175-3.3353,1.9396-4.5479,1.2497-1.2401,2.9039-1.9231,4.6579-1.9231l17.2961.033c1.7559,0,3.4101.683,4.6598,1.923,1.2513,1.2611,1.8983,2.8465,1.9176,4.7069.0002.0225.0012.045.003.0675l.5065,6.4853c.0736.9312.8549,1.6599,1.7788,1.6599l29.1111.044c1.9977.0097,3.8842.7942,5.3088,2.209,1.4125,1.4222,2.1931,3.3148,2.1931,5.3244v1.0901c0,.2533-.2222.4755-.4754.4755l-107.3757-.1872c-.1266,0-.2554-.055-.3552-.1508-.0785-.0788-.1219-.1865-.1219-.3246v-1.1011c.0195-4.1336,3.3941-7.5004,7.5224-7.5004l29.0993.0661h0Z"/>
    </g>
    <path class="cls-3" d="M71.8766,16.6023c.011.2202-.0661.4405-.2092.6056-.1542.1542-.3634.2533-.5836.2533l-20.2819-.055c-.2202,0-.4404-.0881-.5835-.2533-.1431-.1542-.2202-.3743-.2092-.6056,0,0,.2422-2.9729.2422-3.2262,0-.5285.2202-1.035.6056-1.4314.3964-.3964.9029-.6056,1.4534-.6056l17.298.033c.5395,0,1.046.2202,1.4424.6056.3854.3964.5835.9029.5835,1.4534.022.2313.2423,3.2262.2423,3.2262Z"/>
  </g>
  <g>
    <path class="cls-1" d="M109.3108,48.6993H11.7908c-3.01,0-5.44,2.4257-5.44,5.3983,0,2.9924,2.43,5.4082,5.44,5.4082h.92l10.5,80.3177c.35,2.7141,2.67,4.7521,5.44,4.7521h63.6199c2.76,0,5.1-2.038,5.45-4.762l10.33-80.3079h1.26c3,0,5.43-2.4158,5.43-5.3983s-2.43-5.4082-5.43-5.4082ZM109.3108,56.2251h-4.17l-10.7,83.171c-.15,1.0837-1.07,1.8889-2.17,1.8889H28.6508c-1.1,0-2.03-.8053-2.17-1.8889L15.6208,56.2251h-3.83c-1.18,0-2.14-.9544-2.14-2.1275,0-1.1631.96-2.1076,2.14-2.1076h97.52c1.17,0,2.13.9445,2.13,2.1176,0,1.1631-.95,2.1176-2.13,2.1176Z"/>
    <g>
      <path class="cls-4" d="M28.6508,148.8565c-4.9019,0-9.0767-3.6475-9.7119-8.4854L8.8856,63.3478c-4.0581-1.2568-6.835-4.9658-6.835-9.25,0-5.3369,4.3696-9.6787,9.7402-9.6787h97.52c5.3647,0,9.73,4.3418,9.73,9.6787,0,4.3945-2.9688,8.2188-7.1567,9.3564l-9.9019,76.8945c-.6221,4.8496-4.7974,8.5078-9.7114,8.5078H28.6508ZM11.7909,52.9903c-.6289,0-1.1401.4971-1.1401,1.1074,0,.6211.5112,1.127,1.1401,1.127h4.708l10.9736,84.041c.0752.582.5815,1.0195,1.1782,1.0195h63.6201c.6011,0,1.0972-.4316,1.1792-1.0264l10.811-84.0342h5.0498c.623,0,1.1299-.501,1.1299-1.1172s-.5068-1.1172-1.1299-1.1172H11.7909Z"/>
      <path d="M109.3108,45.4186c4.81,0,8.73,3.8971,8.73,8.6789,0,4.2252-3.03,7.7644-7.06,8.5398l-9.99,77.5838c-.56,4.3644-4.31,7.6351-8.72,7.6351H28.6508c-4.41,0-8.15-3.2707-8.72-7.6152L9.7908,62.5578c-3.86-.9047-6.74-4.3544-6.74-8.4603,0-4.7819,3.92-8.6789,8.74-8.6789h97.52M11.7908,56.2251h3.83l10.86,83.171c.14,1.0837,1.07,1.8889,2.17,1.8889h63.6199c1.1,0,2.02-.8053,2.17-1.8889l10.7-83.171h4.17c1.18,0,2.13-.9544,2.13-2.1176,0-1.1731-.96-2.1176-2.13-2.1176H11.7908c-1.18,0-2.14.9445-2.14,2.1076,0,1.1731.96,2.1275,2.14,2.1275M109.3108,43.4186H11.7908c-5.9221,0-10.74,4.7906-10.74,10.6789,0,4.5068,2.7848,8.4374,6.9233,9.9945l9.9735,76.4079c.6999,5.3346,5.3012,9.3563,10.7032,9.3563h63.6199c5.416,0,10.0176-4.0328,10.7038-9.3806l9.8189-76.2549c4.2754-1.4585,7.2474-5.5057,7.2474-10.1232,0-5.8884-4.8134-10.6789-10.73-10.6789h0ZM11.7908,54.2251c-.0746,0-.14-.0596-.14-.1275,0-.0508.0599-.1076.14-.1076h97.52c.0705,0,.13.0538.13.1176,0,.0568-.0522.1176-.13.1176h-5.9292l-.2245,1.7448-10.7,83.171c-.011.0785-.0869.1441-.1864.1441H28.6508c-.0956,0-.1758-.0624-.1865-.1452l-10.8603-83.1736-.2273-1.741h-5.5858Z"/>
    </g>
    <path class="cls-1" d="M109.3108,51.99H11.7908c-1.18,0-2.14.9445-2.14,2.1076,0,1.1731.96,2.1275,2.14,2.1275h3.83l10.86,83.171c.14,1.0837,1.07,1.8889,2.17,1.8889h63.6199c1.1,0,2.02-.8053,2.17-1.8889l10.7-83.171h4.17c1.18,0,2.13-.9544,2.13-2.1176,0-1.1731-.96-2.1176-2.13-2.1176ZM42.4508,132.5662h-.23c-2.17,0-3.96-2.6643-4.08-6.0942l-1.61-55.4142c-.12-3.559,1.6-6.6111,3.86-6.8099,2.23-.2286,4.18,2.5351,4.31,6.0842l1.61,55.4142c.12,3.5591-1.61,6.6112-3.86,6.8199ZM64.6408,126.1142c0,3.569-1.83,6.4521-4.09,6.4521-2.25,0-4.09-2.883-4.09-6.4521v-55.4142c0-3.5591,1.84-6.462,4.09-6.462,2.26,0,4.09,2.9029,4.09,6.462v55.4142ZM84.5708,71.0578l-1.61,55.4142c-.12,3.4298-1.91,6.0942-4.08,6.0942h-.23c-2.26-.2087-3.98-3.2608-3.86-6.8199l1.61-55.4142s.09-6.0643,4.32-6.0842c4.24-.01,3.85,6.8099,3.85,6.8099Z"/>
  </g>
</svg>