<?xml version="1.0" encoding="UTF-8"?>
<svg id="Clone" xmlns="http://www.w3.org/2000/svg" viewBox="0 0 124.6655 101.2534">
  <defs>
    <style>
      .cls-1 {
        fill: #f9c780;
      }

      .cls-2 {
        fill: #f7a926;
        stroke-width: 2px;
      }

      .cls-2, .cls-3 {
        stroke: #231f20;
        stroke-miterlimit: 10;
      }

      .cls-4 {
        fill: #bdbdbd;
      }

      .cls-3 {
        fill: #5e5e5e;
      }
    </style>
  </defs>
  <path class="cls-3" d="M106.5036,11.4818c15.4654,5.8723,22.0444,23.9671,14.5841,38.5925-7.7671,15.5902-28.2243,21.3456-42.5799,11.1164-16.9412-12.1537-14.4948-37.5701,3.2893-47.6755,7.3767-4.2943,16.75-5.1317,24.689-2.0402l.0175.0067Z"/>
  <ellipse class="cls-4" cx="82.9041" cy="28.0985" rx="8.808" ry="4.7459" transform="translate(7.8095 73.0808) rotate(-49.6449)"/>
  <path class="cls-2" d="M62.9097,13.2936c24.263,9.2128,34.5846,37.6009,22.8804,60.5462-12.1855,24.4589-44.2799,33.4882-66.8018,17.4401C-7.59,72.2124-3.752,32.3378,24.1487,16.4838c11.573-6.7371,26.2784-8.051,38.7335-3.2007l.0275.0105Z"/>
  <ellipse class="cls-1" cx="25.8855" cy="39.3628" rx="13.8185" ry="7.4457" transform="translate(-20.8722 33.6004) rotate(-49.6449)"/>
</svg>