<?xml version="1.0" encoding="UTF-8"?>
<svg xmlns="http://www.w3.org/2000/svg" viewBox="0 0 100 100">
  <defs>
    <style>
      .cls-1 {
        fill: #444;
      }

      .cls-2 {
        fill: #f9aa26;
      }
    </style>
  </defs>
  <g id="Layer_3" data-name="Layer 3">
    <path class="cls-1" d="M0,0v100h100V0H0ZM83.96,71.54c0,8.1-3.06,15.08-8.85,20.18-5.43,4.8-12.98,7.55-21.28,7.74,0,0-.67.02-.99.02-.66,0-2.99-.07-3.47-.09-4.76-.1-11.28-.24-17.28-2.72-6.81-2.5-11.76-6.3-14.71-11.29-3.09-5.19-3.29-10.51-2.92-14.07.63-6.09,4.15-9.24,7.23-11.3l-.02-32.18c0-5.13,4.19-9.31,9.31-9.31s9.29,4.18,9.29,9.31v16.17c1.76-2.18,4.41-3.48,7.24-3.48,2.55,0,4.97,1.04,6.72,2.88,1.75-1.84,4.11-2.88,6.72-2.88s5.08,1.1,6.85,3.03c1.77-1.93,4.24-3.02,6.85-3.02h.02c5.12,0,9.29,4.18,9.29,9.31v21.7Z"/>
  </g>
  <g id="Layer_1" data-name="Layer 1">
    <path d="M74.68,40.53h-.02c-2.61,0-5.08,1.09-6.85,3.02-1.77-1.93-4.24-3.03-6.85-3.03s-4.97,1.04-6.72,2.88c-1.75-1.84-4.17-2.88-6.72-2.88-2.83,0-5.48,1.3-7.24,3.48v-16.17c0-5.13-4.17-9.31-9.29-9.31s-9.31,4.18-9.31,9.31l.02,32.18c-3.08,2.06-6.6,5.21-7.23,11.3-.37,3.56-.17,8.88,2.92,14.07,2.95,4.99,7.9,8.79,14.71,11.29,6,2.48,12.52,2.62,17.28,2.72.48.02,2.81.09,3.47.09.32,0,.99-.02.99-.02,8.3-.19,15.85-2.94,21.28-7.74,5.79-5.1,8.85-12.08,8.85-20.18v-21.7c0-5.13-4.17-9.31-9.29-9.31ZM55.49,45.09c1.37-1.61,3.34-2.52,5.45-2.52,3.98,0,7.22,3.25,7.22,7.24v5.92h0c0,4-3.24,7.25-7.22,7.25-2.1,0-4.06-.9-5.45-2.48.86-1.45,1.31-3.08,1.31-4.74v-5.92c0-1.66-.45-3.3-1.31-4.75ZM40.3,49.86c0-1.95.74-3.79,2.11-5.16,1.36-1.37,3.18-2.12,5.12-2.12,3.99,0,7.24,3.25,7.24,7.24v5.92h-.01c0,3.99-3.25,7.24-7.24,7.24-.36,0-.71-.02-1.03-.07-.13-2.09-.9-4.13-2.25-5.94-1.16-1.55-2.49-2.65-3.94-3.29v-3.82ZM30.96,20.58c3.99,0,7.24,3.25,7.24,7.24v25.23c-3.67-.53-7.04,1.49-8.53,2.39-.91.55-1.84,1.05-2.83,1.58l-.32.17c-.77.41-1.74.93-2.74,1.5l-.06-30.87c0-3.99,3.25-7.24,7.24-7.24ZM81.87,72.29c-.26,14.57-11.72,24.7-28.06,25.09,0,0-3.86-.06-4.38-.09-4.79-.11-10.74-.24-16.35-2.49l-.09-.08h-.12c-16.3-5.95-16.85-18.21-16.33-23.21.72-6.99,5.92-9.78,10.95-12.48l.09-.05c1.04-.56,2.12-1.14,3.14-1.75,3.58-2.15,8.16-3.99,11.85.96,1.68,2.24,2.25,4.77,1.64,7.3-.88,3.54-4.07,6.78-8.99,9.14-.24.12-.42.32-.52.57-.1.26-.09.55.04.8.26.51.87.73,1.37.48,5.48-2.64,9.06-6.38,10.08-10.52.08-.31.14-.64.19-1.02.34.04.72.08,1.11.08,2.55,0,4.97-1.04,6.72-2.88,1.75,1.84,4.17,2.88,6.72,2.88s5.08-1.1,6.85-3.03c1.77,1.93,4.24,3.03,6.85,3.03,2.83,0,5.48-1.3,7.22-3.47l.02,10.23v.23s0,.29,0,.29ZM81.89,55.7c0,3.99-3.24,7.24-7.22,7.24v.02c-2.22,0-4.25-.97-5.62-2.69.78-1.38,1.2-2.95,1.2-4.56v-5.92c0-1.61-.41-3.18-1.19-4.56,1.38-1.7,3.4-2.67,5.61-2.67,3.78,0,6.94,2.95,7.2,6.74.02.2.02.37.02.57v5.83Z"/>
    <path d="M74.68,40.53h-.02c-2.61,0-5.08,1.09-6.85,3.02-1.77-1.93-4.24-3.03-6.85-3.03s-4.97,1.04-6.72,2.88c-1.75-1.84-4.17-2.88-6.72-2.88-2.83,0-5.48,1.3-7.24,3.48v-16.17c0-5.13-4.17-9.31-9.29-9.31s-9.31,4.18-9.31,9.31l.02,32.18c-3.08,2.06-6.6,5.21-7.23,11.3-.37,3.56-.17,8.88,2.92,14.07,2.95,4.99,7.9,8.79,14.71,11.29,6,2.48,12.52,2.62,17.28,2.72.48.02,2.81.09,3.47.09.32,0,.99-.02.99-.02,8.3-.19,15.85-2.94,21.28-7.74,5.79-5.1,8.85-12.08,8.85-20.18v-21.7c0-5.13-4.17-9.31-9.29-9.31ZM55.49,45.09c1.37-1.61,3.34-2.52,5.45-2.52,3.98,0,7.22,3.25,7.22,7.24v5.92h0c0,4-3.24,7.25-7.22,7.25-2.1,0-4.06-.9-5.45-2.48.86-1.45,1.31-3.08,1.31-4.74v-5.92c0-1.66-.45-3.3-1.31-4.75ZM40.3,49.86c0-1.95.74-3.79,2.11-5.16,1.36-1.37,3.18-2.12,5.12-2.12,3.99,0,7.24,3.25,7.24,7.24v5.92h-.01c0,3.99-3.25,7.24-7.24,7.24-.36,0-.71-.02-1.03-.07-.13-2.09-.9-4.13-2.25-5.94-1.16-1.55-2.49-2.65-3.94-3.29v-3.82ZM30.96,20.58c3.99,0,7.24,3.25,7.24,7.24v25.23c-3.67-.53-7.04,1.49-8.53,2.39-.91.55-1.84,1.05-2.83,1.58l-.32.17c-.77.41-1.74.93-2.74,1.5l-.06-30.87c0-3.99,3.25-7.24,7.24-7.24ZM81.87,72.29c-.26,14.57-11.72,24.7-28.06,25.09,0,0-3.86-.06-4.38-.09-4.79-.11-10.74-.24-16.35-2.49l-.09-.08h-.12c-16.3-5.95-16.85-18.21-16.33-23.21.72-6.99,5.92-9.78,10.95-12.48l.09-.05c1.04-.56,2.12-1.14,3.14-1.75,3.58-2.15,8.16-3.99,11.85.96,1.68,2.24,2.25,4.77,1.64,7.3-.88,3.54-4.07,6.78-8.99,9.14-.24.12-.42.32-.52.57-.1.26-.09.55.04.8.26.51.87.73,1.37.48,5.48-2.64,9.06-6.38,10.08-10.52.08-.31.14-.64.19-1.02.34.04.72.08,1.11.08,2.55,0,4.97-1.04,6.72-2.88,1.75,1.84,4.17,2.88,6.72,2.88s5.08-1.1,6.85-3.03c1.77,1.93,4.24,3.03,6.85,3.03,2.83,0,5.48-1.3,7.22-3.47l.02,10.23v.23s0,.29,0,.29ZM81.89,55.7c0,3.99-3.24,7.24-7.22,7.24v.02c-2.22,0-4.25-.97-5.62-2.69.78-1.38,1.2-2.95,1.2-4.56v-5.92c0-1.61-.41-3.18-1.19-4.56,1.38-1.7,3.4-2.67,5.61-2.67,3.78,0,6.94,2.95,7.2,6.74.02.2.02.37.02.57v5.83Z"/>
  </g>
  <g id="Layer_2" data-name="Layer 2">
    <g>
      <rect class="cls-2" x="27.98" y="1.24" width="5.97" height="12.66" rx="1" ry="1"/>
      <path d="M32.95,2.24v10.66h-3.97V2.24h3.97M32.95.24h-3.97c-1.1,0-2,.9-2,2v10.66c0,1.1.9,2,2,2h3.97c1.1,0,2-.9,2-2V2.24c0-1.1-.9-2-2-2h0Z"/>
    </g>
    <g>
      <path class="cls-2" d="M45.11,20.91c-.27,0-.52-.11-.71-.29l-2.81-2.81c-.39-.39-.39-1.02,0-1.41l7.54-7.54c.2-.2.45-.29.71-.29s.51.1.71.29l2.81,2.81c.19.19.29.44.29.71s-.11.52-.29.71l-7.54,7.54c-.19.19-.44.29-.71.29h0Z"/>
      <path d="M49.84,9.57l2.81,2.81-7.54,7.54-2.81-2.81,7.54-7.54M49.84,7.57c-.53,0-1.04.21-1.41.59l-7.54,7.54c-.78.78-.78,2.05,0,2.83l2.81,2.81c.39.39.9.59,1.41.59s1.02-.2,1.41-.59l7.54-7.54c.78-.78.78-2.05,0-2.83l-2.81-2.81c-.38-.38-.88-.59-1.41-.59h0Z"/>
    </g>
    <g>
      <path class="cls-2" d="M16.65,20.91c-.26,0-.51-.1-.71-.29l-7.54-7.54c-.39-.39-.39-1.02,0-1.41l2.81-2.81c.19-.19.44-.29.71-.29s.52.11.71.29l7.54,7.54c.19.19.29.44.29.71s-.11.52-.29.71l-2.81,2.81c-.2.2-.45.29-.71.29Z"/>
      <path d="M11.92,9.57l7.54,7.54-2.81,2.81-7.54-7.54,2.81-2.81M11.92,7.57c-.53,0-1.04.21-1.41.59l-2.81,2.81c-.78.78-.78,2.05,0,2.83l7.54,7.54c.39.39.9.59,1.41.59s1.02-.2,1.41-.59l2.81-2.81c.78-.78.78-2.05,0-2.83l-7.54-7.54c-.38-.38-.88-.59-1.41-.59h0Z"/>
    </g>
  </g>
</svg>