<?xml version="1.0" encoding="utf-8"?>
<!-- Generator: Adobe Illustrator 29.0.0, SVG Export Plug-In . SVG Version: 9.03 Build 54978)  -->
<svg version="1.1" id="Layer_1" xmlns="http://www.w3.org/2000/svg" xmlns:xlink="http://www.w3.org/1999/xlink" x="0px" y="0px"
	 viewBox="0 0 1035 255" style="enable-background:new 0 0 1035 255;" xml:space="preserve">
<style type="text/css">
	.st0{fill:#003057;}
	.st1{fill-rule:evenodd;clip-rule:evenodd;fill:#FFFFFF;}
	.st2{fill:#F9AA26;}
</style>
<rect y="0" class="st0" width="1035" height="255"/>
<path class="st1" d="M755.9,121.1l-23.3-32h-11v58.4h14.2V119l23,28.5H770V89h-14.1C755.9,89,755.9,121.1,755.9,121.1z M626.8,111.7
	L609.4,89H598v58.4h14.3v-26.6l14.5,14.8l13.5-14.7v26.6h14.2V89h-11.2C643.3,89,626.8,111.7,626.8,111.7z M688.4,88.1
	c-16.7,0-30.2,13-30.2,30.2s13.5,30,30.2,30s30.3-13,30.3-30S705.1,88.1,688.4,88.1z M672.4,118.3c0-22.1,32-22,32,0
	S672.4,140.4,672.4,118.3z M798.7,111.8c-1.8-0.4-8.5-1.5-7.9-5.7c0.4-2.6,2.8-4,6-4c0.6,0,1.5,0,2.5,0.2c0,0,0,0,0.1,0l0.3,0.1
	c0.3,0.1,0.7,0.2,1,0.3c1.7,0.5,3.8,1.5,6,3.3l9.5-7.8c-3.5-4.9-9.4-7.8-15.4-8.7c-12-1.8-23.2,4.2-24.4,16.7V106
	c-0.8,13.1,9.7,16.7,18.6,18.9c2.1,0.6,8.5,1.7,7.9,5.7c-0.4,2.8-3.4,3.8-7.2,3.5c-0.3,0-1,0-1.9-0.2c-1.2-0.2-2.6-0.6-3.8-1.3
	c-1.7-0.8-3.7-2.2-5.6-4.2l-0.1,0.1v-0.1l-10.3,8.5c0,0,6.1,10.6,20.5,10.7c10.1,0.5,20.8-4.7,22.3-15.5c0.2-1.2,0.2-2.7,0.2-4
	C816.3,117.6,806.5,114,798.7,111.8L798.7,111.8z M997.7,128.1c-0.9-10.5-10.7-14.1-18.5-16.3c-1.8-0.4-8.5-1.5-7.9-5.7
	c0.4-2.6,2.8-4,6-4c0.6,0,1.5,0,2.5,0.2c0,0,0,0,0.1,0l0.3,0.1c0.3,0.1,0.7,0.2,1,0.3c1.7,0.5,3.8,1.5,6,3.3l9.5-7.8
	c-3.5-4.9-9.4-7.8-15.4-8.7c-12-1.8-23.2,4.2-24.4,16.7V106c-0.8,13.1,9.7,16.7,18.6,18.9c2.1,0.6,8.5,1.7,7.9,5.7
	c-0.4,2.8-3.4,3.8-7.2,3.5c-0.3,0-1,0-1.9-0.2c-1.2-0.2-2.6-0.6-3.8-1.3c-1.7-0.8-3.7-2.2-5.6-4.2l-0.1,0.1v-0.1l-10.3,8.5
	c0,0,6.1,10.6,20.5,10.7c10.1,0.5,20.8-4.7,22.3-15.5C997.7,130.9,997.7,129.4,997.7,128.1L997.7,128.1z M933.1,89h-22.7v58.5h14.2
	v-19.8h2.3l12.2,19.8l17.1,0l-14.4-21.2C959.8,117.7,956.3,89,933.1,89L933.1,89z M932.8,114.7h-8.2v-12h8.2
	C941.5,102.7,941.4,114.7,932.8,114.7z M882.4,125.2h15.9v-13.9h-15.9v-8.5h24.1V89H868v58.5h38.6v-13.8h-24.2V125.2L882.4,125.2z
	 M819,102.4h15.8v45.1H849v-45.1h15.7V89H819L819,102.4L819,102.4z"/>
<path class="st2" d="M287.9,105.3c-4.7,0-10.2,2-13.3,6.6v-5.7H264V164l10.5-0.1v-21.2c2.9,4.5,9.4,5.8,13.7,5.8
	c13.2,0,20.8-9.5,20.8-21.6S300.6,105.3,287.9,105.3L287.9,105.3z M288.7,138.6c-6.9,0-11.7-5.3-11.7-11.7c0-6.4,4.4-11.7,11.7-11.7
	s11.7,5.3,11.7,11.7C300.4,133.3,295.6,138.6,288.7,138.6z M470.9,111.9c-2.3-4.1-7.6-6.7-13.1-6.7c-12-0.1-21.5,7.4-21.5,21.6
	s9,22,21.2,21.9c4.6-0.1,11-2.4,13.4-7.3l-0.1,6H481v-41.2l-10.2-2.7L470.9,111.9L470.9,111.9z M456.8,139.4
	c-6.8,0-12.2-4.7-12.2-12.6s5.4-12.5,12.2-12.5C472.8,114.3,472.8,139.4,456.8,139.4z M591.9,106.2l-24.8,57.7h-11.2l8-18.9
	l-17-38.7h11.8L569,133l11.6-26.7L591.9,106.2L591.9,106.2z M533.3,89h10.1v58.5h-10.1C533.3,147.5,533.3,89,533.3,89z M363.9,105.4
	c-13.1,0-21.3,9.7-21.3,21.5s8,21.5,21.4,21.5s21.5-9.6,21.5-21.5S377,105.4,363.9,105.4z M364,139c-7.4,0-11.2-5.9-11.2-12.1
	s3.9-12.2,11.2-12.2c6.9,0,11.2,6,11.2,12.2C375.2,133.1,371.4,139,364,139z M508.9,105.2c-4.4,0-11.1,2.3-13.5,6.6V89h-10.2v58.5
	h10.2l0-5.7c3.2,4.9,8.3,6.6,13.3,6.6c12.1,0,21.2-8,21.2-21.6C529.9,112.6,521,105.2,508.9,105.2L508.9,105.2z M509.6,138.9
	c-6.4,0-12-4.7-12-12.1s5.5-12.1,12-12.1s11.7,4.6,11.7,12.1S516.1,138.9,509.6,138.9z M412.6,105.2c-4.4,0-11.1,2.3-13.5,6.6V89
	h-10.2v58.5H399l0-5.7c3.2,4.9,8.3,6.6,13.3,6.6c12.1,0,21.2-8,21.2-21.6C433.6,112.6,424.6,105.2,412.6,105.2L412.6,105.2z
	 M413.2,138.9c-6.4,0-12-4.7-12-12.1s5.5-12.1,12-12.1s11.7,4.6,11.7,12.1S419.7,138.9,413.2,138.9z M344.8,109.1l-4.6,8.9
	c-2.1-1.8-4-2.7-7.4-2.7c-5.4,0-10.3,2.8-10.3,10.5v21.8h-10.2v-41.2l10.2,0v4.2c3.5-5.4,9.6-4.8,10.6-4.8
	C341.1,105.4,344.8,109.1,344.8,109.1L344.8,109.1z M224.6,152.6c-4.1,13.9-10.6,26.4-19.8,38.3c-4.1,5.3-8.7,10.2-13.8,14.5
	c-2.7,2.4-12.4,9.6-14.8,11.3l-9.3,6.1l5.2-9.1c11.5-19.6,24.4-45.8,23.1-74.8c-0.3-5.4-0.7-11.7-2.4-17.2
	c-1.4-4.6-3.6-8.7-6.2-12.7c-0.6-1-1.3-2-1.9-3c-7.5-12-12.1-22-15.6-32.3c-2.5-7.5-1.6-12.3,1.4-18c2.4-4.6,9.3-10,15.8-10h0.1
	c3.2,0,5.4,0.3,7.2,1.9c0.3,0.3,0.7,0.6,1.1,0.9c3.2,2.7,6.1,5.7,8.7,8.6c4.7,5.2,8.8,10.8,12.3,16.8c7,11.9,11.3,24.8,12.7,38.5
	C229.8,125.6,228.6,139.2,224.6,152.6L224.6,152.6z M81.1,54.9c2.6,5.3,1.7,11,0.6,16.6c-1.1,5.8-3.6,11.5-6.3,16.8
	c-1.8,3.5-3.7,6.8-5.5,10.3c3.6-2.8,7.2-5.4,10.2-8.9c0.1-0.1,0.5-0.3,0.5-0.2c-0.2,1.6,0.1,3.2,1.5,4.2c1.6,1.1,3.4,2,5.1,3
	c3.2,1.8,6.7,3.4,10.1,4.8c7.8,3.2,16.4,5.7,24.9,5.7s17.1-2.5,24.9-5.7c3.4-1.4,6.9-3,10.1-4.8c1.7-1,3.5-1.9,5.1-3
	c1.4-0.9,1.7-2.6,1.5-4.2c0-0.1,0.4,0.1,0.5,0.2c3,3.5,6.5,6.1,10.2,8.9c-1.8-3.4-3.8-6.8-5.5-10.3c-2.7-5.3-5.4-10.9-6.5-16.8
	c-1.1-5.6-2-11.3,0.6-16.6c3.9-8.1,11.5-12.5,19.4-15.3c-4.5-2.4-6.9-3.5-11.9-5c-6.7-2-13.8-2.5-20.8-1.5c1.2-2.2,2.8-4.3,4.2-6.4
	c-2.8-0.6-5.6-1.3-8.4-1.3c-2.5,0-5.1,0.2-7.6,0.7c-2.1,0.4-4.1,1.2-6.1,1.6c-3-2.1-5.4-7.1-9.6-7.1s-6.6,5-9.6,7.1
	c-2.1-0.4-4-1.2-6.1-1.6c-2.5-0.5-5-0.7-7.6-0.7c-2.9,0-5.6,0.7-8.4,1.3c1.4,2.1,3,4.1,4.2,6.4c-7-1-14.1-0.5-20.8,1.5
	c-4.9,1.5-7.2,2.5-11.7,5C70.1,42.4,77.1,46.8,81.1,54.9L81.1,54.9z M49.1,138.9c0.3-5.4,0.7-11.7,2.4-17.2
	c1.4-4.6,3.6-8.7,6.2-12.7c0.6-1,1.3-2,1.9-3c7.5-12,12.2-22,15.6-32.3c1.9-5.8,1-13.6-1.4-18.2c-2.4-4.6-9.3-9.7-15.8-9.8h-0.1
	c-3.2,0-5.4,0.3-7.2,1.9c-0.3,0.3-0.7,0.6-1,0.9c-3.2,2.6-6.1,5.7-8.7,8.6c-4.7,5.2-8.8,10.8-12.3,16.8c-7,11.9-11.3,24.8-12.7,38.5
	c-1.4,13.3-0.1,26.9,3.8,40.3c4.1,13.9,10.6,26.4,19.8,38.3c4.1,5.3,8.7,10.2,13.8,14.5c2.7,2.4,12.5,9.6,14.8,11.3l9.3,6.1
	l-5.2-9.1C60.7,194.1,47.7,167.9,49.1,138.9L49.1,138.9z M169.5,102.9c-2.2-1.5-3.4-0.2-3.9,0.4c-6.6,7.4-10,8.5-17.2,5.6
	c-0.4-0.2-0.8-0.2-1.2-0.4c-1.8-0.6-2.8-0.8-4-0.2c-0.3,0.1-1.2,0.5-1.3,0.5c-5.9,2.3-17,3.6-19.8,3.6s-13.9-1.3-19.8-3.6
	c-0.2-0.1-1.1-0.4-1.3-0.5c-1.2-0.6-2.2-0.3-4,0.2c-0.4,0.1-0.8,0.2-1.2,0.4c-7.2,3-10.6,1.9-17.2-5.6c-0.5-0.5-1.7-1.8-3.9-0.4
	c-0.5,0.3-1.3,1.2-2,1.8c-1.3,1.1-2,2.2-3.3,3.5c-1.1,1.1-2.2,2.6-2.7,3c0,0-1.9,1.9-2.1,2.1c-0.2,0.2-0.4,0.9,0,1.2
	s2.2,1.4,2.2,1.4c11.4,6.4,20.7,17.2,26.3,28.9c0,0,1.5,2.6,1.5,2.7c0.1,0.2,0.4,0.2,0.5,0c0.1-0.2,1.4-1.3,1.4-1.3
	c1.7-1.1,2.2-12.8,2.4-12.6c3.2,1.8,5.3,6.6,5.4,8c0,0.3,0.4,0.3,0.4,0.3s0.8-0.5,3.1-0.9c2.2-0.4,9.1-1,14.4-1
	c5.2,0,12.2,0.6,14.4,1c2.3,0.4,3.1,0.9,3.1,0.9s0.4-0.1,0.4-0.3c0.1-1.4,2.2-6.2,5.4-8c0.2-0.1,0.9,11.8,2.6,12.9
	c0,0,1.1,0.9,1.2,1c0.1,0.1,0.4,0.1,0.5,0c0.1-0.1,1.5-2.7,1.5-2.7c5.6-11.7,14.9-22.5,26.3-28.9c0,0,1.8-1.1,2.2-1.4
	c0.4-0.3,0.2-1,0-1.2c-0.2-0.2-2.1-2.1-2.1-2.1c-0.5-0.3-1.6-1.8-2.7-3c-1.4-1.3-2.1-2.4-3.3-3.5C170.8,104.1,170,103.2,169.5,102.9
	L169.5,102.9z M169.4,187.1c1.4,2.3,2.2,5.4,2.3,6.2c0.1,1.4,0.8,1.2,1.2,0.6c2-3.1,1.8-2.6,3.6-5.8c1.9-3.3,4.4-7.9,5.3-11.7
	c2-8.6,3.5-16.9,0.7-25.2c0.8,0.5,1.5,1,2.3,1.5c0.2,0.1,0.7,0.2,1.1,0.1c0.9-0.4,1.7-1.7,1.9-3c0.2-1.2-0.1-2.6-0.3-3.8
	c-0.5-2.7-2.1-5.3-3.9-7.3c-1.3-1.4-3.3-3.3-2.9-5.6c0.2-1.2,2-2.3,2.7-3.4c0.7-1.1,0.8-1.8,1-2.8c0-0.2,0.1-0.8-0.1-1.2
	c-1.2-2.8-1.9-4.9-4.2-6.6c-4.6,2.9-9,6.6-13.1,10.1c-1.6,1.4-4.5,4-5.3,6.1c-0.9,2.5,0.1,3.9,0.8,6.2c2.9,9.5,4.4,21.8,2.3,31.8
	c0,0.1-0.1,0.3-0.2,0.4c0-8.2-4.1-19.7-9.3-25.7c-1.7,1.5-2.2,2-3.4,3.9c-0.7,1.2-1.6,2.3-1.9,3.6c-1.2-1.4-2.5-2.8-3.7-4.2
	c-2.6-3-6.4-3.6-9.9-4.1c-4.7-0.6-9.4-0.9-14.1-0.9c-4.7,0-9.4,0.3-14.1,0.9c-3.6,0.5-7.3,1.1-9.9,4.1c-1.2,1.4-2.5,2.8-3.7,4.2
	c-0.4-1.3-1.2-2.5-1.9-3.6c-1-1.7-1.7-2.5-3.4-3.9c-5.2,6-9.3,17.6-9.3,25.7c-0.1-0.1-0.2-0.2-0.2-0.4c-2.1-10-0.6-22.3,2.3-31.8
	c0.7-2.4,1.8-3.8,0.8-6.2c-0.8-2.1-3.7-4.7-5.3-6.1c-4.2-3.5-8.6-7.1-13.1-10.1c-2.4,1.6-3.1,3.8-4.2,6.6c-0.2,0.3-0.1,1-0.1,1.2
	c0.2,1.1,0.3,1.7,1,2.8c0.6,1,2.4,2.1,2.7,3.4c0.4,2.3-2,4.1-3.3,5.6c-1.8,2-3,4.6-3.5,7.3c-0.2,1.2-0.5,2.6-0.3,3.8
	c0.2,1.3,0.8,2.6,1.9,3c0.4,0.1,0.8,0.1,1.1-0.1c0.8-0.5,1.5-1,2.3-1.5c-2.8,8.3-1.3,16.7,0.7,25.2c0.9,3.8,3.3,8.4,5.3,11.7
	c1.1,1.8,2.3,3.7,3.7,5.8c0.4,0.6,1.1,0.7,1.2-0.6c0.1-1.3,0.8-3.8,2.3-6.2c0.1-0.2,0.4-0.1,0.5,0.1c2.4,9.5,6.7,18.8,12.4,26.5
	c2,2.7,9.5,12.7,12.4,6.2c4.4,6.1,14.6,16.3,21.9,16.3s17.5-10.2,21.9-16.3c2.9,6.5,10.5-3.6,12.4-6.2c5.7-7.8,10-17,12.4-26.5
	C169,187,169.3,186.9,169.4,187.1L169.4,187.1z"/>
</svg>
