<?xml version="1.0" encoding="UTF-8"?>
<svg id="Layer_1" xmlns="http://www.w3.org/2000/svg" version="1.1" viewBox="0 0 220 220">
  <!-- Generator: Adobe Illustrator 29.0.0, SVG Export Plug-In . SVG Version: 2.1.0 Build 186)  -->
  <defs>
    <style>
      .st0 {
        fill: #f9aa26;
      }
    </style>
  </defs>
  <path class="st0" d="M213.1,134.1c-4.1,13.8-10.6,26.3-20,38.2-4.1,5.3-8.8,10.2-13.8,14.5-2.7,2.4-12.5,9.6-14.9,11.2l-9.4,6.1,5.3-9.1c11.5-19.5,24.6-45.7,23.2-74.6-.3-5.4-.7-11.7-2.4-17.2-1.4-4.6-3.6-8.7-6.2-12.7-.6-1-1.3-2-1.9-3-7.5-12-12.2-21.9-15.7-32.2-2.5-7.5-1.6-12.3,1.4-17.9,2.5-4.6,9.4-9.9,15.9-10h0c3.3,0,5.4.3,7.3,1.9.3.3.7.6,1.1.9,3.3,2.6,6.1,5.7,8.8,8.6,4.7,5.2,8.9,10.8,12.4,16.7,7,11.9,11.3,24.8,12.8,38.4,1.4,13.3.2,26.8-3.9,40.2h0ZM68.7,36.6c2.6,5.3,1.7,11,.6,16.6-1.1,5.8-3.6,11.4-6.3,16.7-1.8,3.5-3.7,6.8-5.6,10.3,3.6-2.8,7.2-5.4,10.2-8.9.1-.1.5-.3.5-.2-.2,1.6.1,3.2,1.5,4.1,1.7,1.1,3.5,2,5.2,3,3.3,1.8,6.7,3.4,10.2,4.8,7.8,3.2,16.5,5.7,25,5.7s17.2-2.5,25-5.7c3.5-1.4,6.9-3,10.2-4.8,1.7-1,3.5-1.9,5.2-3,1.4-.9,1.7-2.6,1.5-4.1,0-.1.4,0,.5.2,3,3.5,6.6,6.1,10.2,8.9-1.8-3.4-3.8-6.8-5.6-10.3-2.7-5.3-5.4-10.9-6.5-16.7-1.1-5.6-2-11.2.6-16.6,4-8.1,11.5-12.5,19.5-15.2-4.5-2.4-7-3.5-12-5-6.8-2-13.9-2.5-20.9-1.5,1.2-2.2,2.8-4.3,4.2-6.4-2.8-.6-5.6-1.3-8.5-1.3-2.5,0-5.1.2-7.6.7-2.1.4-4.1,1.2-6.2,1.6-3-2.1-5.4-7.1-9.7-7.1s-6.7,5-9.7,7.1c-2.1-.4-4.1-1.2-6.2-1.6-2.5-.5-5.1-.7-7.6-.7-2.9,0-5.7.7-8.5,1.3,1.4,2.1,3,4.1,4.2,6.4-7-1-14.1-.5-20.9,1.5-5,1.5-7.2,2.5-11.7,5,8,2.7,15.1,7.1,19.1,15.2h0ZM36.5,120.4c.3-5.4.7-11.7,2.4-17.2,1.4-4.6,3.6-8.7,6.2-12.7.6-1,1.3-2,1.9-3,7.5-12,12.2-21.9,15.7-32.2,2-5.8,1-13.6-1.4-18.1-2.5-4.6-9.4-9.7-15.9-9.8h0c-3.3,0-5.4.3-7.3,1.9-.3.3-.7.6-1.1.9-3.3,2.6-6.1,5.7-8.8,8.6-4.7,5.2-8.9,10.8-12.4,16.7-7,11.9-11.3,24.8-12.8,38.4-1.4,13.3-.2,26.8,3.9,40.2,4.1,13.8,10.6,26.3,20,38.2,4.1,5.3,8.8,10.2,13.8,14.5,2.7,2.4,12.5,9.6,14.9,11.2l9.4,6.1-5.3-9.1c-11.5-19.5-24.6-45.7-23.2-74.6h0ZM157.7,84.5c-2.2-1.5-3.4-.2-3.9.4-6.7,7.4-10.1,8.5-17.3,5.5-.4-.1-.8-.2-1.2-.4-1.8-.6-2.8-.8-4.1-.2-.3.1-1.2.5-1.3.5-5.9,2.3-17.1,3.6-19.9,3.6s-14-1.3-19.9-3.6c-.2,0-1.1-.4-1.3-.5-1.2-.6-2.3-.3-4.1.2-.4.1-.8.2-1.2.4-7.2,3-10.6,1.9-17.3-5.5-.5-.5-1.7-1.8-3.9-.4-.5.3-1.3,1.2-2.1,1.8-1.3,1.1-2,2.2-3.4,3.5-1.1,1.1-2.3,2.6-2.7,3,0,0-1.9,1.9-2.2,2.1-.2.2-.4.9,0,1.2s2.2,1.4,2.2,1.4c11.5,6.4,20.9,17.2,26.5,28.9,0,0,1.5,2.6,1.5,2.7,0,.2.4.2.5,0s1.4-1.3,1.4-1.3c1.8-1,2.2-12.7,2.4-12.6,3.2,1.8,5.3,6.6,5.4,8,0,.3.4.3.4.3,0,0,.8-.5,3.1-.9,2.2-.4,9.2-1,14.5-1,5.3,0,12.2.6,14.5,1,2.3.4,3.1.9,3.1.9,0,0,.4,0,.4-.3.1-1.4,2.2-6.2,5.4-8,.2-.1.9,11.8,2.6,12.8,0,0,1.1.9,1.2,1,.1.1.4.1.5,0,0,0,1.5-2.7,1.5-2.7,5.6-11.7,15-22.5,26.5-28.9,0,0,1.8-1.1,2.2-1.4.5-.3.2-1,0-1.2-.2-.2-2.2-2.1-2.2-2.1-.5-.3-1.6-1.8-2.7-3-1.4-1.3-2.1-2.4-3.4-3.5-.8-.7-1.6-1.5-2.1-1.8h0ZM157.5,168.4c1.4,2.3,2.2,5.4,2.3,6.2.1,1.3.8,1.2,1.2.6,2-3.1,1.8-2.5,3.7-5.7,1.9-3.3,4.4-7.8,5.3-11.6,2-8.5,3.6-16.9.7-25.1.8.5,1.5,1,2.3,1.5.2.1.7.2,1.1,0,.9-.4,1.7-1.7,2-3,.2-1.2,0-2.6-.3-3.8-.5-2.7-2.1-5.3-3.9-7.3-1.3-1.4-3.3-3.3-2.9-5.5.2-1.2,2-2.3,2.7-3.4.7-1.1.8-1.7,1-2.8,0-.2,0-.8,0-1.2-1.2-2.8-1.9-4.9-4.3-6.6-4.6,2.9-9,6.6-13.2,10-1.6,1.4-4.6,4-5.4,6.1-.9,2.5.1,3.9.8,6.2,2.9,9.4,4.4,21.7,2.3,31.7,0,.1-.1.3-.2.4,0-8.1-4.2-19.7-9.4-25.6-1.7,1.5-2.2,2-3.5,3.9-.7,1.2-1.6,2.3-1.9,3.6-1.2-1.4-2.5-2.8-3.7-4.2-2.6-3-6.4-3.6-10-4.1-4.7-.6-9.4-.9-14.2-.9-4.8,0-9.5.3-14.2.9-3.6.5-7.4,1.1-10,4.1-1.3,1.4-2.5,2.8-3.7,4.2-.4-1.3-1.2-2.5-1.9-3.6-1-1.7-1.8-2.5-3.5-3.9-5.2,6-9.3,17.5-9.4,25.6,0-.1-.2-.2-.2-.4-2.1-10-.6-22.2,2.3-31.7.7-2.4,1.8-3.8.8-6.2-.8-2.1-3.7-4.7-5.4-6.1-4.2-3.5-8.6-7.1-13.2-10-2.4,1.6-3.1,3.7-4.3,6.6-.2.3-.1,1,0,1.2.2,1.1.3,1.7,1,2.8.6,1,2.5,2.1,2.7,3.4.4,2.3-2,4.1-3.3,5.5-1.8,2-3,4.6-3.5,7.3-.2,1.2-.5,2.6-.3,3.8.2,1.3.8,2.6,2,3,.4.1.9,0,1.1,0,.8-.5,1.5-1,2.3-1.5-2.8,8.3-1.3,16.6.7,25.1.9,3.8,3.3,8.4,5.3,11.6,1.1,1.7,2.3,3.7,3.7,5.7.4.6,1.1.7,1.2-.6.1-1.3.8-3.8,2.3-6.2.1-.2.4,0,.5.1,2.5,9.5,6.8,18.7,12.5,26.5,2,2.7,9.6,12.7,12.5,6.2,4.4,6.1,14.7,16.3,22,16.3s17.6-10.2,22-16.3c2.9,6.5,10.5-3.6,12.5-6.2,5.7-7.8,10-17,12.5-26.5,0-.2.4-.3.5-.1h0Z"/>
</svg>