<?xml version="1.0" encoding="UTF-8"?>
<svg id="nonBlueprint" xmlns="http://www.w3.org/2000/svg" viewBox="0 0 118.69 150.2861">
  <defs>
    <style>
      .cls-1 {
        fill: #5e5e5e;
      }

      .cls-1, .cls-2 {
        stroke: #000;
        stroke-miterlimit: 10;
        stroke-width: 3px;
      }

      .cls-2 {
        fill: #f9aa26;
      }
    </style>
  </defs>
  <circle class="cls-2" cx="59.3424" cy="19.6119" r="18.1071"/>
  <path class="cls-1" d="M117.1553,54.9066c-.4658-3.8053-3.7308-6.6439-7.5639-6.576H9.0991c-3.8331-.0679-7.0982,2.7707-7.5639,6.576-.3922,4.0048,2.5365,7.5693,6.5413,7.9615.2373.0232.4755.0348.7139.0347h28.357c2.694,0,4.878,2.1839,4.878,4.8779,0,.0052,0,.0103,0,.0155v13.9701c.0059,4.1872-.6238,8.3511-1.8678,12.3493l-13.1211,42.4661c-1.7437,4.481.4754,9.5271,4.9565,11.2708,4.481,1.7437,9.5271-.4754,11.2708-4.9565.085-.2183.1611-.44.2282-.6645l12.3493-40.0425c.6329-2.0685,5.0015-2.0685,5.6344,0l13.7694,40.0425c1.1894,4.6589,5.9305,7.4714,10.5893,6.282,4.6589-1.1894,7.4714-5.9304,6.282-10.5893-.1173-.4593-.2719-.9083-.4622-1.3424l-13.1211-42.4043c-1.244-3.9982-1.8738-8.162-1.8678-12.3493v-14.0319c-.0085-2.694,2.1685-4.8849,4.8625-4.8934.0052,0,.0103,0,.0155,0h28.357c4.024.0021,7.2878-3.2583,7.2899-7.2823.0001-.2384-.0114-.4766-.0347-.7139Z"/>
</svg>