<?xml version="1.0" encoding="UTF-8"?>
<svg id="pin_3" data-name="pin 3" xmlns="http://www.w3.org/2000/svg" viewBox="0 0 100 100">
  <defs>
    <style>
      .cls-1 {
        fill: #bdbdbd;
      }

      .cls-2 {
        fill: #5e5f5f;
      }

      .cls-3 {
        fill: #010101;
      }

      .cls-4 {
        fill: #f8aa24;
        stroke: #010101;
        stroke-linejoin: round;
        stroke-width: 2px;
      }
    </style>
  </defs>
  <g>
    <path class="cls-1" d="M9.6274,91.7769c-.5518,0-1.063-.3267-1.3032-.833-.2373-.5-.1641-1.0806.1914-1.5156l29.0137-35.6099c.1787-.2192.4419-.3525.7246-.3667.0171-.001.0337-.0015.0508-.0015.2646,0,.519.105.707.293l7.209,7.2085c.2002.1997.3062.4751.2915.7578-.0142.2827-.1475.5459-.3667.7246l-35.6108,29.0151c-.2671.2153-.5796.3276-.9072.3276Z"/>
    <path class="cls-3" d="M38.3048,54.45l7.2089,7.2089-35.6107,29.0149-.0005-.0005c-.0889.0726-.1841.1037-.2751.1037-.3255,0-.5973-.3981-.3375-.7163l29.0149-35.6107M38.3049,52.45c-.0339,0-.0678.0009-.1018.0026-.565.0288-1.0915.2955-1.4488.7341L7.7395,88.7974c-.6006.7355-.7233,1.7229-.3189,2.5751.4048.8532,1.2711,1.4045,2.2069,1.4045.5552,0,1.1021-.197,1.5401-.5546l35.6095-29.013c.4386-.3574.7054-.8838.7341-1.4488.0288-.565-.1831-1.1158-.5832-1.5159l-7.2089-7.2089c-.376-.376-.8852-.5858-1.4141-.5858h0Z"/>
  </g>
  <g>
    <path class="cls-2" d="M64.6387,78.7432c-.7388,0-1.4619-.2998-1.9849-.8228L22.0454,37.3076c-.522-.519-.8232-1.2412-.8242-1.98-.001-.731.2798-1.4146.7905-1.9253,4.3647-4.3633,10.4316-6.7598,17.0942-6.7598,4.2266,0,8.6226.9663,12.7578,2.7993l8.4478-8.4478c.5884-.5884.8633-1.439.7744-2.3955-.0947-1.0264-.5889-2.0337-1.3906-2.8354l-.5117-.5117c-1.1299-1.1318-1.8281-2.5752-1.9668-4.0654-.145-1.5615.3345-2.98,1.3516-3.9941l4.7197-4.7241c.8882-.8857,2.1182-1.3735,3.4644-1.3735,1.6558,0,3.332.7266,4.5986,1.9937l25.5259,25.5259c2.3931,2.3931,2.6699,6.0103.6172,8.0635l-4.7212,4.7212c-.8877.8857-2.1177,1.3735-3.4639,1.3735h-.0005c-1.6553-.0005-3.3315-.7266-4.5986-1.9937l-.5078-.5078c-.8955-.8955-2.0557-1.4092-3.1831-1.4092-.5742,0-1.395.1367-2.0474.7891l-8.4478,8.4473c4.8462,10.917,3.3257,22.5664-3.9497,29.8413-.5269.5249-1.2085.8042-1.9355.8042Z"/>
    <path class="cls-3" d="M66.7528,2.0945c1.3358,0,2.7702.5792,3.8914,1.7004l25.5257,25.5257.0009.001c1.9983,1.9983,2.2747,4.9901.6163,6.6485l-4.7212,4.7212c-.7278.7262-1.7123,1.0804-2.7572,1.0804-1.3358,0-2.7701-.5792-3.8914-1.7004l-.508-.508c-1.1217-1.1217-2.5552-1.702-3.8904-1.702-1.0434,0-2.0269.3545-2.7544,1.082l-8.9383,8.9383c4.8594,10.3795,3.8808,22.0109-3.4588,29.3505-.0075.0075-.0112.0112-.0149.0149-.3352.3334-.7735.4961-1.2138.4961-.4625,0-.9274-.1796-1.2775-.5298L22.7523,36.6008c-.6873-.6836-.7171-1.8078-.0336-2.4914.0037-.0037.0075-.0075.0112-.0112,4.3418-4.34,10.1815-6.4558,16.376-6.4557,4.2814,0,8.7325,1.011,12.9745,2.997l8.9382-8.9383c1.6584-1.6584,1.382-4.6465-.6163-6.6448l-.5117-.5117c-1.9946-1.9983-2.2747-4.9901-.6163-6.6448l4.7212-4.725c.7278-.7262,1.7123-1.0804,2.7572-1.0804M66.7528.0945c-1.6131,0-3.094.5912-4.1698,1.6646l-4.7234,4.7271c-1.2112,1.2085-1.8092,2.9561-1.6383,4.7925.1601,1.7215.9606,3.3832,2.2539,4.6789l.513.513c1.2014,1.2014,1.4836,2.9491.6163,3.8164l-7.9677,7.9677c-4.0764-1.7122-8.3804-2.6122-12.5307-2.6122-6.9294-.0001-13.2474,2.5005-17.79,7.0412-.7114.7114-1.0961,1.6467-1.0948,2.6451.0013,1.0025.4098,1.9829,1.1207,2.69l40.6049,40.6087c.709.709,1.6901,1.1156,2.6918,1.1156.9932,0,1.9251-.3829,2.6241-1.078,7.449-7.449,9.13-19.2257,4.4487-30.3404l7.9672-7.9672c.4101-.4101.9552-.4962,1.3402-.4962.8516,0,1.7772.4173,2.4762,1.1162l.508.508c1.4529,1.4529,3.3867,2.2862,5.3056,2.2862,1.6131,0,3.094-.5912,4.1698-1.6646l4.7228-4.7228c1.2124-1.2124,1.8103-2.9603,1.6404-4.7955-.1581-1.7076-.9464-3.3555-2.2214-4.646l-.0022-.0024-.034-.0341L72.0583,2.3807c-1.4529-1.4529-3.3867-2.2862-5.3056-2.2862h0Z"/>
  </g>
  <rect class="cls-4" x="1.0252" y="51.7338" width="8.1611" height="25.0432"/>
  <rect class="cls-4" x="31.602" y="82.3612" width="8.2196" height="25.0512" transform="translate(130.5986 59.175) rotate(90)"/>
</svg>