<?xml version="1.0" encoding="UTF-8"?>
<svg xmlns="http://www.w3.org/2000/svg" viewBox="0 0 150 150">
  <defs>
    <style>
      .cls-1 {
        fill: #444;
      }

      .cls-2 {
        fill: #f9aa26;
      }
    </style>
  </defs>
  <g id="Layer_8" data-name="Layer 8">
    <path class="cls-1" d="M0,0v150h150V0H0ZM148.64,71.52l-37.34,24.24c-.43.28-.92.42-1.41.42-.45,0-.9-.11-1.3-.35-.84-.49-1.33-1.42-1.27-2.39l1.01-16.12-17.16-5.25c-1.4,1.17-3.97,3.19-6.83,4.91-3.03,1.82-6.61,2.79-8.69,3.23l-5.03,19.2,17.2,6.56c.91.35,1.55,1.18,1.65,2.15.1.97-.36,1.91-1.18,2.44l-56.91,36.32c-.42.27-.9.41-1.39.41-.33,0-.66-.06-.97-.19-.77-.31-1.35-.99-1.54-1.8l-14.7-62.52c-.22-.92.09-1.89.79-2.52.48-.43,1.09-.66,1.72-.66.29,0,.59.05.87.15l14.09,5.01,7.69-16.67c-.98-1.35-2.45-3.56-3.34-5.74-.94-2.29-1.61-5.66-1.95-7.66l-12.4-3.79-7.92,11.47c-.49.71-1.29,1.12-2.13,1.12-.16,0-.32-.01-.48-.04-1.01-.19-1.81-.96-2.04-1.95L.45,30.8c-.3-1.31.44-2.64,1.72-3.05l35.63-11.55c.27-.09.53-.13.8-.13.79,0,1.55.36,2.05,1.01.66.87.71,2.06.11,2.98l-3.51,5.38,9.32,2.42c1.35-.78,3.94-2.15,6.97-3.16,2.5-.83,4.46-1.34,5.67-1.62l2.56-5.55-7.37-1.58c-1.14-.24-1.97-1.21-2.04-2.37-.06-1.16.65-2.23,1.75-2.6L81.61,1.62c.27-.09.55-.14.83-.14h0c.68,0,1.35.27,1.84.77l18.93,19.18c.8.8.97,2.03.44,3.03-.46.86-1.34,1.37-2.28,1.37-.16,0-.33-.02-.49-.05l-9.8-1.88-1.86,6.66c1.39,1.02,3.41,2.65,4.86,4.39,1.57,1.88,2.68,4.13,3.29,5.53l13.39,3.39.59-8.01c.07-1.01.72-1.88,1.67-2.23.29-.11.6-.16.9-.16.68,0,1.34.27,1.83.76l33.31,33.29c.55.55.82,1.32.74,2.1-.08.78-.51,1.48-1.16,1.9Z"/>
  </g>
  <g id="Layer_7" data-name="Layer 7">
    <g>
      <path class="cls-2" d="M30,145.99c-.16,0-.33-.03-.49-.09-.39-.16-.68-.49-.77-.9l-14.7-62.52c-.11-.46.04-.94.4-1.26.24-.22.55-.33.86-.33.15,0,.29.02.43.07l15.2,5.41,8.51-18.43c-.87-1.15-2.64-3.64-3.64-6.07-1.03-2.52-1.73-6.47-2-8.18l-14.07-4.3-8.45,12.25c-.24.35-.64.56-1.06.56-.08,0-.16,0-.24-.02-.5-.09-.9-.48-1.02-.97L1.71,30.5c-.15-.65.22-1.32.86-1.52l35.64-11.56c.13-.04.27-.06.4-.06.39,0,.78.18,1.03.51.33.44.36,1.03.06,1.49l-4.49,6.89,11.57,3.01c1.09-.65,3.86-2.2,7.19-3.32,2.97-.99,5.13-1.51,6.16-1.73l3.51-7.6-8.95-1.91c-.57-.12-.99-.61-1.02-1.19-.03-.58.32-1.11.87-1.3l27.5-9.36c.14-.05.28-.07.42-.07.34,0,.67.13.92.38l18.92,19.2c.4.4.49,1.02.22,1.51-.23.43-.67.68-1.14.68-.08,0-.16,0-.24-.02l-10.97-2.1-2.42,8.67c1.25.88,3.7,2.73,5.35,4.7,1.72,2.06,2.86,4.61,3.34,5.79l15.51,3.93.7-9.55c.04-.5.36-.94.84-1.12.15-.05.3-.08.45-.08.34,0,.67.13.91.38l33.31,33.29c.28.28.41.66.37,1.05-.04.39-.25.74-.58.95l-37.34,24.24c-.21.14-.46.21-.7.21-.23,0-.45-.06-.65-.18-.42-.25-.67-.71-.64-1.2l1.08-17.14-18.8-5.75c-1.16.99-3.99,3.32-7.21,5.25-3.3,1.99-7.32,2.91-9.06,3.23l-5.53,21.1,18.29,6.97c.46.17.77.59.82,1.08.05.49-.18.96-.59,1.22l-56.91,36.32c-.21.13-.45.2-.69.2ZM32.95,136.37l41.82-26.68-12.04-4.6c-.62-.24-.96-.9-.79-1.53l7.86-29.99c.13-.5.55-.88,1.07-.95,0,0,2.19-.31,2.2-.31.2-.03,4.65-.71,7.83-2.63,3.56-2.13,6.82-5.03,6.86-5.06l1.27-1.13c.25-.22.59-.35.92-.35.12,0,.24.02.35.05l24.81,7.59c.57.17.95.72.91,1.32l-.73,11.55,23.59-15.31-21-21-.38,5.12c-.03.38-.22.73-.53.95-.22.16-.49.24-.76.24-.11,0-.21-.01-.32-.04l-23.1-5.85c-.42-.11-.76-.42-.9-.83,0,0-.72-2.06-.72-2.07-.24-.62-1.12-2.76-2.36-4.24-1.6-1.92-4.75-4-4.78-4.02l-2.69-1.75c-.47-.31-.69-.89-.54-1.43l4.65-16.7c.15-.54.63-.91,1.17-.94l-5.32-5.48-10.07,3.01s.07.1.1.16c.19.36.2.78.03,1.14l-7.06,15.29c-.18.38-.53.66-.95.73,0,0-1.67.3-1.69.3-.15.03-2.44.46-6.02,1.66-3.47,1.16-6.42,3.01-6.45,3.03l-1.04.67c-.21.13-.45.2-.7.2-.11,0-.22-.01-.33-.04l-20.62-5.37c-.4-.1-.73-.4-.88-.78s-.1-.82.12-1.17l.39-.59-17.32,5.62,3.49,14.78,4.63-6.71c.25-.36.65-.56,1.06-.56.13,0,.25.02.38.06l19.93,6.08c.48.15.83.56.9,1.06l.4,2.84c.2,1.48.87,5.31,1.62,7.12.71,1.73,2.39,4.07,3.09,4.94l1.96,2.41c.31.38.38.91.17,1.36l-12.05,26.1c-.22.47-.68.75-1.17.75-.14,0-.29-.02-.43-.08l-10.62-3.78,10.78,45.83Z"/>
      <path d="M82.45,4.06l18.93,19.2-12.14-2.32-2.99,10.7s3.71,2.41,5.85,4.99c2.14,2.57,3.37,6.05,3.37,6.05l17.65,4.47.81-11.08,33.31,33.29-37.34,24.24,1.14-18.16-20.47-6.26s-3.5,3.14-7.56,5.58c-4.07,2.46-9.43,3.2-9.43,3.2l-6.03,23.03,19.37,7.38-56.91,36.32-14.7-62.52,16.31,5.8,9.33-20.22s-2.68-3.29-3.95-6.39c-1.27-3.1-2.04-8.68-2.04-8.68l-15.75-4.81-8.99,13.03L2.97,30.21l35.64-11.56-5.48,8.39,13.84,3.6s3.29-2.11,7.39-3.48,6.65-1.81,6.65-1.81l4.46-9.66-10.53-2.25,27.5-9.36M47.45,35.22l-20.62-5.37,2.38-3.66-21.93,7.12,4.43,18.77,6.29-9.11,19.93,6.08.4,2.84c.17,1.29.87,5.39,1.7,7.43.82,2,2.69,4.53,3.29,5.26l1.96,2.41-12.05,26.1-12.86-4.58,11.74,49.91,45.52-29.04-14.44-5.51,7.86-29.99,2.17-.31s4.88-.72,8.35-2.81c3.71-2.22,7.05-5.2,7.05-5.2l1.27-1.13.03-.03,24.81,7.59-.89,14.11,27.08-17.57-24.13-24.12-.58,7.94-23.1-5.85-.72-2.06s-1-2.75-2.59-4.65c-1.75-2.09-5.06-4.27-5.06-4.27l-2.69-1.75,4.65-16.7,3.79.83-8.8-9.06-15.34,4.59,3.84.64-7.06,15.29-1.64.29s-2.45.44-6.25,1.71c-3.67,1.23-6.73,3.16-6.73,3.16l-1.05.67M147.23,69.36h0s0,0,0,0h0M82.45,1.48c-.28,0-.56.05-.83.14l-27.5,9.36c-1.1.37-1.81,1.44-1.75,2.6.07,1.16.9,2.13,2.04,2.37l7.37,1.58-2.56,5.55c-1.21.28-3.17.79-5.67,1.62-3.03,1.01-5.62,2.38-6.97,3.16l-9.32-2.42,3.51-5.38c.6-.92.55-2.11-.11-2.98-.5-.65-1.26-1.01-2.05-1.01-.27,0-.53.04-.8.13L2.17,27.75c-1.28.41-2.02,1.74-1.72,3.05l7.23,30.7c.23.99,1.03,1.76,2.04,1.95.16.03.32.04.48.04.84,0,1.64-.41,2.13-1.12l7.92-11.47,12.4,3.79c.34,2,1.01,5.37,1.95,7.66.89,2.18,2.36,4.39,3.34,5.74l-7.69,16.67-14.09-5.01c-.28-.1-.58-.15-.87-.15-.63,0-1.24.23-1.72.66-.7.63-1.01,1.6-.79,2.52l14.7,62.52c.19.81.77,1.49,1.54,1.8.31.13.64.19.97.19.49,0,.97-.14,1.39-.41l56.91-36.32c.82-.53,1.28-1.47,1.18-2.44-.1-.97-.74-1.8-1.65-2.15l-17.2-6.56,5.03-19.2c2.08-.44,5.66-1.41,8.69-3.23,2.86-1.72,5.43-3.74,6.83-4.91l17.16,5.25-1.01,16.12c-.06.97.43,1.9,1.27,2.39.4.24.85.35,1.3.35.49,0,.98-.14,1.41-.42l37.34-24.24c.65-.42,1.08-1.12,1.16-1.9.08-.78-.19-1.55-.74-2.1l-33.31-33.29c-.49-.49-1.15-.76-1.83-.76-.3,0-.61.05-.9.16-.95.35-1.6,1.22-1.67,2.23l-.59,8.01-13.39-3.39c-.61-1.4-1.72-3.65-3.29-5.53-1.45-1.74-3.47-3.37-4.86-4.39l1.86-6.66,9.8,1.88c.16.03.33.05.49.05.94,0,1.82-.51,2.28-1.37.53-1,.36-2.23-.44-3.03L84.29,2.25c-.49-.5-1.16-.77-1.84-.77h0ZM72.76,14.22l8.16-2.44,3.68,3.79c-.18.24-.31.52-.4.82l-4.65,16.7c-.3,1.09.13,2.24,1.08,2.86l2.69,1.75c.83.55,3.27,2.3,4.49,3.76,1.11,1.33,1.92,3.31,2.15,3.88,0,0,0,.01,0,.02l.7,2.01c.29.82.96,1.44,1.81,1.65l23.1,5.85c.21.05.42.08.63.08.54,0,1.07-.17,1.51-.49.62-.45,1.01-1.14,1.07-1.91l.17-2.31,17.88,17.88-20.1,13.04.57-8.98c.08-1.19-.68-2.28-1.82-2.63l-24.81-7.59c-.25-.08-.5-.11-.76-.11-.61,0-1.2.21-1.68.62-.01.01-.06.05-.07.06l-1.27,1.13s-3.22,2.86-6.66,4.92c-2.89,1.74-7.1,2.42-7.34,2.46-.01,0-.03,0-.04,0l-2.17.31c-1.03.15-1.87.9-2.14,1.9l-7.86,29.99c-.33,1.28.35,2.6,1.58,3.07l9.65,3.68-38.12,24.32-9.82-41.76,8.39,2.99c.29.1.58.15.87.15.98,0,1.91-.56,2.35-1.5l12.05-26.1c.41-.9.28-1.95-.34-2.71l-1.96-2.41c-.64-.78-2.25-3.04-2.9-4.61-.66-1.6-1.32-5.21-1.53-6.79l-.4-2.86c-.14-.99-.84-1.82-1.8-2.11l-19.93-6.08c-.25-.08-.5-.11-.75-.11-.83,0-1.63.4-2.13,1.12l-2.98,4.32-2.55-10.79,13.98-4.54c.02.1.06.19.09.29.3.78.95,1.36,1.76,1.57l20.62,5.37c.21.06.43.08.65.08.49,0,.97-.14,1.39-.41l1.05-.67s2.84-1.78,6.16-2.88c3.42-1.14,5.63-1.57,5.82-1.61.02,0,.04,0,.06-.01l1.64-.29c.83-.15,1.54-.69,1.89-1.46l7.06-15.29c.14-.3.22-.63.23-.95h0Z"/>
    </g>
  </g>
</svg>