<?xml version="1.0" encoding="UTF-8"?>
<svg id="trashcan" xmlns="http://www.w3.org/2000/svg" viewBox="0 0 121.8417 149.8563">
  <defs>
    <style>
      .cls-1 {
        fill: #5e5e5e;
      }

      .cls-2 {
        fill: #bdbdbd;
      }

      .cls-3 {
        fill: #f9aa26;
      }
    </style>
  </defs>
  <g>
    <g>
      <path class="cls-3" d="M28.6205,140.0948c-3.2563,0-6.0234-2.4238-6.4365-5.6367L11.7929,58.464h-.0483c-3.5537,0-6.4448-2.8779-6.4448-6.416,0-3.5312,2.8911-6.4043,6.4448-6.4043h97.6118c3.5479,0,6.4346,2.8779,6.4346,6.415,0,3.5322-2.8867,6.4053-6.4346,6.4053h-.3867l-10.2231,76c-.4126,3.207-3.1841,5.6309-6.4463,5.6309H28.6205Z"/>
      <path d="M109.3562,46.6433c3.0028,0,5.4351,2.4323,5.4351,5.4151s-2.4323,5.4051-5.4351,5.4051h-1.2612l-10.3397,76.8668c-.3503,2.7226-2.6925,4.7645-5.4551,4.7645H28.6206c-2.7726,0-5.0948-2.0419-5.4451-4.7645L12.6656,57.4635h-.9209c-3.0128,0-5.4451-2.4223-5.4451-5.4151,0-2.9727,2.4323-5.4051,5.4451-5.4051h97.6114M109.3562,44.6433H11.7447c-4.1052,0-7.4451,3.3219-7.4451,7.4051,0,3.8092,2.8987,6.9567,6.6146,7.3693l10.2797,75.1836c.4754,3.6952,3.6691,6.4936,7.4267,6.4936h63.6796c3.7633,0,6.9613-2.7984,7.4388-6.5093l10.1072-75.138c3.8722-.2521,6.9451-3.47,6.9451-7.3892,0-4.0887-3.3354-7.4151-7.4351-7.4151h0Z"/>
    </g>
    <g>
      <path class="cls-1" d="M28.6205,138.5948c-2.5039,0-4.6318-1.8604-4.9487-4.3281L13.102,56.964h-1.3574c-2.7266,0-4.9448-2.2051-4.9448-4.916,0-2.7041,2.2183-4.9043,4.9448-4.9043h97.6118c2.7207,0,4.9346,2.2051,4.9346,4.915,0,2.7051-2.2139,4.9053-4.9346,4.9053h-1.6982l-10.3984,77.2998c-.3174,2.4707-2.4497,4.3311-4.9595,4.3311H28.6205ZM82.497,59.0694c-3.7378.0176-4.7886,4.3096-4.8223,6.5771l-1.6118,55.4658c-.1304,3.877,1.7661,7.1016,4.3174,7.3389l.2764.002c2.4409,0,4.4546-2.8936,4.5835-6.5879l1.6118-55.4648c.0088-.1572.2173-4.1963-1.6841-6.21-.7026-.7441-1.5977-1.1211-2.6592-1.1211h-.0117ZM60.5507,59.0587c-2.5332,0-4.5942,3.125-4.5942,6.9668v55.4717c0,3.8359,2.061,6.9561,4.5942,6.9561,2.5762,0,4.5938-3.0557,4.5938-6.9561v-55.4717c0-3.8418-2.0605-6.9668-4.5938-6.9668ZM38.8725,59.0558c-.103,0-.2075.0059-.3115.0166-2.5454.2246-4.4429,3.4453-4.3115,7.3301l1.6108,55.46c.1294,3.6973,2.1431,6.5908,4.584,6.5908h.23c2.5981-.2402,4.4941-3.4648,4.3633-7.3428l-1.6108-55.4707c-.1357-3.6934-2.1362-6.584-4.5542-6.584Z"/>
      <path d="M109.3562,47.6433c2.4455,0,4.4351,1.9806,4.4351,4.4151,0,2.429-1.9896,4.4051-4.4351,4.4051h-2.1357l-.1166.8667-10.3405,76.8726c-.2855,2.2188-2.2043,3.8921-4.4633,3.8921H28.6206c-2.2533,0-4.1678-1.6732-4.4543-3.8999L13.6564,57.3281l-.1182-.8645h-1.7935c-2.451,0-4.4451-1.9806-4.4451-4.4151,0-2.429,1.9941-4.4051,4.4451-4.4051h97.6114M40.4441,128.9532h.2768l.0464-.0043c2.8145-.2626,4.9097-3.7133,4.7703-7.8511l-1.6117-55.4795c-.145-3.9605-2.3648-7.0626-5.0534-7.0625-.1201,0-.2412.0062-.3481.0173-2.8175.2493-4.9149,3.6957-4.7751,7.8415l1.6117,55.4678c.141,4.031,2.3263,7.0707,5.0832,7.0707M60.5505,128.9532c2.8563,0,5.0938-3.2751,5.0938-7.456v-55.472c0-4.1866-2.2375-7.466-5.0938-7.466s-5.0938,3.2795-5.0938,7.466v55.472c0,4.1809,2.2375,7.456,5.0938,7.456M80.3802,128.9532h.2766c2.7569,0,4.9422-3.0397,5.0834-7.0766l1.6103-55.4339c.0103-.1797.2282-4.4269-1.8198-6.5953-.7897-.8362-1.835-1.2782-3.0369-1.2781-4.1247.0194-5.283,4.6336-5.3189,7.0566l-1.6114,55.4673c-.1397,4.1436,1.9558,7.5943,4.7705,7.8558l.0462.0043M109.3562,46.6433H11.7447c-3.0128,0-5.4451,2.4323-5.4451,5.4051,0,2.9928,2.4323,5.4151,5.4451,5.4151h.9209l10.5098,76.8669c.3503,2.7226,2.6725,4.7645,5.4451,4.7645h63.6796c2.7626,0,5.1048-2.0419,5.4551-4.7645l10.3397-76.8669h1.2612c3.0028,0,5.4351-2.4223,5.4351-5.4051s-2.4323-5.4151-5.4351-5.4151h0ZM40.4441,127.9532c-2.172,0-3.9637-2.6725-4.0838-6.1057l-1.6115-55.4619c-.1201-3.5633,1.6015-6.6162,3.8637-6.8164.0871-.009.1739-.0134.26-.0134,2.1218-.0002,3.929,2.6843,4.0541,6.0991l1.6115,55.4719c.1201,3.5633-1.6115,6.6162-3.8636,6.8264h-.2302ZM60.5505,127.9532c-2.2521,0-4.0938-2.8927-4.0938-6.456v-55.472c0-3.5633,1.8417-6.466,4.0938-6.466,2.2621,0,4.0938,2.9027,4.0938,6.466v55.472c0,3.5633-1.8317,6.456-4.0938,6.456h0ZM80.4266,127.9532c-2.2621-.2102-3.9837-3.2631-3.8636-6.8264l1.6115-55.4719s.0901-6.0657,4.324-6.0857c.0031,0,.0062,0,.0093,0,4.2341,0,3.8443,6.8164,3.8443,6.8164l-1.6116,55.4619c-.1201,3.4332-1.9118,6.1057-4.0838,6.1057h-.2302Z"/>
    </g>
  </g>
  <g>
    <path class="cls-2" d="M7.1796,37.8868c-.6436,0-1.2612-.251-1.7373-.708-.4805-.4795-.7373-1.1025-.7373-1.7686v-1.1016c.0244-5.2451,4.2998-9.5088,9.5303-9.5088l28.9414.0664.5244-6.4541c.0342-2.1826.9341-4.292,2.5298-5.875,1.6274-1.6157,3.7837-2.5054,6.0713-2.5054l17.3164.0332c2.2856,0,4.4419.8896,6.0698,2.5054,1.6196,1.6328,2.4863,3.7432,2.5107,6.1104l.4893,6.2402,28.9414.0439c2.5347.0127,4.9209,1.0049,6.7207,2.792,1.7988,1.8115,2.7861,4.207,2.7861,6.75v1.0908c0,1.3652-1.1113,2.4766-2.4766,2.4766l-107.4805-.1875ZM70.8739,21.7462c-.0488-.6592-.2065-2.7998-.2251-2.9932-.0044-.3916-.106-.6475-.3062-.8535-.1304-.126-.3833-.3018-.7261-.3018l-17.3154-.0332c-.2881,0-.5391.1055-.7456.3125-.1997.2051-.3145.4668-.3145.7266,0,.2451-.147,2.0967-.2275,3.0898l19.8604.0527Z"/>
    <path d="M52.3023,11.0318l17.3142.033c2.0279,0,3.9345.7936,5.3673,2.2153,1.4217,1.4327,2.1932,3.2843,2.2153,5.4114l.5069,6.4914c.0331.4188.3747.7385.7825.7385l29.1399.0441c2.2703.011,4.4085.9037,6.0176,2.5018,1.609,1.6201,2.4907,3.7692,2.4907,6.0396v1.0911c0,.8046-.6723,1.4769-1.4768,1.4769l-107.4781-.1874c-.3967,0-.7714-.1653-1.0469-.4298-.2866-.2866-.4299-.6503-.4299-1.047v-1.1021c.0221-4.6729,3.8243-8.5083,8.5303-8.5083l29.1288.0661h.0221c.4078,0,.7494-.3196.7715-.7274l.54-6.6457c.033-1.9839.8266-3.8464,2.2373-5.2461,1.4327-1.4218,3.3394-2.2153,5.3673-2.2153M71.0933,22.7472c.2204,0,.4299-.0992.5842-.2535.1433-.1653.2204-.3857.2094-.6061,0,0-.2204-2.9977-.2425-3.2292,0-.5511-.1984-1.0581-.5841-1.4548-.3967-.3857-.9037-.6062-1.4438-.6062l-17.3142-.033c-.5511,0-1.058.2093-1.4548.6061-.3857.3967-.6061.9037-.6061,1.4327,0,.2535-.2424,3.2292-.2424,3.2292-.011.2315.0661.4518.2094.6061.1433.1653.3637.2535.5841.2535l20.3009.0551M52.3061,9.0318h-.0038c-2.5529,0-4.9594.9928-6.7761,2.7956-1.7659,1.7521-2.7682,4.0808-2.8268,6.5642l-.4446,5.472-28.0149-.0636c-5.7836,0-10.5075,4.7098-10.5349,10.4989v1.1116c0,.9322.3607,1.8063,1.0156,2.4612.6922.665,1.5559,1.0155,2.4612,1.0155l107.4746.1874c1.9206,0,3.4803-1.5597,3.4803-3.4769v-1.0911c0-2.8091-1.0909-5.4545-3.0717-7.4489-1.9977-1.984-4.6318-3.0788-7.4269-3.0924l-28.0244-.0424-.4157-5.3233c-.0438-2.6041-1.0092-4.9293-2.7945-6.7285-1.8277-1.8137-4.2341-2.8065-6.7869-2.8065l-17.3104-.033h0ZM52.2427,18.6074c.0038,0,.0159-.0192.0388-.0427l17.331.0327c.0011.0005.0107.0047.0265.0166.0039.0083.0054.0202.0054.0443v.0951l.009.0946c.0132.1435.0829,1.0762.1436,1.8956l-17.7004-.048c.144-1.8276.1447-2.0215.1447-2.0914,0,.0021.0005.0031.0014.0031h0Z"/>
  </g>
</svg>