<?xml version="1.0" encoding="UTF-8"?><svg id="trashcan" xmlns="http://www.w3.org/2000/svg" width="114.43" height="132.06" viewBox="0 0 114.43 132.06"><path d="M24.92,131.06c-3.26,0-6.02-2.42-6.44-5.64L8.09,49.43h-.05c-3.55,0-6.44-2.88-6.44-6.42s2.89-6.4,6.44-6.4h97.61c3.55,0,6.43,2.88,6.43,6.42s-2.89,6.41-6.43,6.41h-.39l-10.22,76c-.41,3.21-3.18,5.63-6.45,5.63H24.92Z" style="fill:#f9aa26; stroke-width:0px;"/><path d="M105.65,37.61c3,0,5.44,2.43,5.44,5.42s-2.43,5.41-5.44,5.41h-1.26l-10.34,76.87c-.35,2.72-2.69,4.76-5.46,4.76H24.92c-2.77,0-5.09-2.04-5.45-4.76L8.96,48.43h-.92c-3.01,0-5.45-2.42-5.45-5.42s2.43-5.41,5.45-5.41h97.61M105.65,35.61H8.04c-4.11,0-7.45,3.32-7.45,7.41,0,3.81,2.9,6.96,6.61,7.37l10.28,75.18c.48,3.7,3.67,6.49,7.43,6.49h63.68c3.76,0,6.96-2.8,7.44-6.51l10.11-75.14c3.87-.25,6.95-3.47,6.95-7.39s-3.34-7.42-7.44-7.42h0Z" style="fill:#000; stroke-width:0px;"/><path d="M24.92,129.56c-2.5,0-4.63-1.86-4.95-4.33L9.4,47.93h-1.36c-2.73,0-4.94-2.21-4.94-4.92s2.22-4.9,4.94-4.9h97.61c2.72,0,4.93,2.21,4.93,4.92s-2.21,4.91-4.93,4.91h-1.7l-10.4,77.3c-.32,2.47-2.45,4.33-4.96,4.33H24.92ZM78.79,50.04c-3.74.02-4.79,4.31-4.82,6.58l-1.61,55.47c-.13,3.88,1.77,7.1,4.32,7.34h.28c2.44,0,4.45-2.89,4.58-6.59l1.61-55.46c0-.16.22-4.2-1.68-6.21-.7-.74-1.6-1.12-2.66-1.12h-.01,0ZM56.85,50.03c-2.53,0-4.59,3.12-4.59,6.97v55.47c0,3.84,2.06,6.96,4.59,6.96s4.59-3.06,4.59-6.96v-55.47c0-3.84-2.06-6.97-4.59-6.97ZM35.17,50.02c-.1,0-.21,0-.31.02-2.55.22-4.44,3.45-4.31,7.33l1.61,55.46c.13,3.7,2.14,6.59,4.58,6.59h.23c2.6-.24,4.49-3.46,4.36-7.34l-1.61-55.47c-.14-3.69-2.14-6.58-4.55-6.58h0Z" style="fill:#5e5e5e; stroke-width:0px;"/><path d="M105.65,38.61c2.45,0,4.44,1.98,4.44,4.42s-1.99,4.41-4.44,4.41h-2.14l-.12.87-10.34,76.87c-.29,2.22-2.2,3.89-4.46,3.89H24.92c-2.25,0-4.17-1.67-4.45-3.9L9.95,48.3l-.12-.86h-1.79c-2.45,0-4.45-1.98-4.45-4.42s1.99-4.41,4.45-4.41h97.61M36.74,119.92h.32c2.81-.27,4.91-3.72,4.77-7.86l-1.61-55.48c-.15-3.96-2.36-7.06-5.05-7.06-.12,0-.24,0-.35.02-2.82.25-4.91,3.7-4.78,7.84l1.61,55.47c.14,4.03,2.33,7.07,5.08,7.07M56.85,119.92c2.86,0,5.09-3.28,5.09-7.46v-55.47c0-4.19-2.24-7.47-5.09-7.47s-5.09,3.28-5.09,7.47v55.47c0,4.18,2.24,7.46,5.09,7.46M76.68,119.92h.28c2.76,0,4.94-3.04,5.08-7.08l1.61-55.43c.01-.18.23-4.43-1.82-6.6-.79-.84-1.83-1.28-3.04-1.28-4.12.02-5.28,4.63-5.32,7.06l-1.61,55.47c-.14,4.14,1.96,7.59,4.77,7.86h.05M105.65,37.61H8.04c-3.01,0-5.45,2.43-5.45,5.41s2.43,5.42,5.45,5.42h.92l10.51,76.87c.35,2.72,2.67,4.76,5.45,4.76h63.68c2.76,0,5.1-2.04,5.46-4.76l10.34-76.87h1.26c3,0,5.44-2.42,5.44-5.41s-2.43-5.42-5.44-5.42h0ZM36.74,118.92c-2.17,0-3.96-2.67-4.08-6.11l-1.61-55.46c-.12-3.56,1.6-6.62,3.86-6.82.09,0,.17-.01.26-.01,2.12,0,3.93,2.68,4.05,6.1l1.61,55.47c.12,3.56-1.61,6.62-3.86,6.83h-.23ZM56.85,118.92c-2.25,0-4.09-2.89-4.09-6.46v-55.47c0-3.56,1.84-6.47,4.09-6.47s4.09,2.9,4.09,6.47v55.47c0,3.56-1.83,6.46-4.09,6.46h0ZM76.72,118.92c-2.26-.21-3.98-3.26-3.86-6.83l1.61-55.47s.09-6.07,4.32-6.09h0c4.23,0,3.84,6.82,3.84,6.82l-1.61,55.46c-.12,3.43-1.91,6.11-4.08,6.11h-.23,0Z" style="fill:#000; stroke-width:0px;"/><path d="M3.47,28.86c-.64,0-1.26-.25-1.74-.71-.48-.48-.74-1.1-.74-1.77v-1.1c.02-5.25,4.3-9.51,9.53-9.51l28.94.07.52-6.45c.03-2.18.93-4.29,2.53-5.88,1.63-1.62,3.78-2.51,6.07-2.51l17.32.03c2.29,0,4.44.89,6.07,2.51,1.62,1.63,2.49,3.74,2.51,6.11l.49,6.24,28.94.04c2.53.01,4.92,1,6.72,2.79,1.8,1.81,2.79,4.21,2.79,6.75v1.09c0,1.37-1.11,2.48-2.48,2.48l-107.48-.19h0ZM67.17,12.71c-.05-.66-.21-2.8-.23-2.99,0-.39-.11-.65-.31-.85-.13-.13-.38-.3-.73-.3l-17.32-.03c-.29,0-.54.11-.75.31-.2.21-.31.47-.31.73,0,.25-.15,2.1-.23,3.09l19.86.05h0Z" style="fill:#bdbdbd; stroke-width:0px;"/><path d="M48.6,2l17.31.03c2.03,0,3.93.79,5.37,2.22,1.42,1.43,2.19,3.28,2.22,5.41l.51,6.49c.03.42.37.74.78.74l29.14.04c2.27.01,4.41.9,6.02,2.5,1.61,1.62,2.49,3.77,2.49,6.04v1.09c0,.8-.67,1.48-1.48,1.48l-107.48-.19c-.4,0-.77-.17-1.05-.43-.29-.29-.43-.65-.43-1.05v-1.1c.02-4.67,3.82-8.51,8.53-8.51l29.13.07h.02c.41,0,.75-.32.77-.73l.54-6.65c.03-1.98.83-3.85,2.24-5.25,1.43-1.42,3.34-2.22,5.37-2.22M67.39,13.72c.22,0,.43-.1.58-.25.14-.17.22-.39.21-.61,0,0-.22-3-.24-3.23,0-.55-.2-1.06-.58-1.45-.4-.39-.9-.61-1.44-.61l-17.31-.03c-.55,0-1.06.21-1.45.61-.39.4-.61.9-.61,1.43,0,.25-.24,3.23-.24,3.23-.01.23.07.45.21.61.14.17.36.25.58.25l20.3.06M48.6,0h0C46.04,0,43.64.99,41.82,2.8c-1.77,1.75-2.77,4.08-2.83,6.56l-.44,5.47-28.01-.06C4.75,14.77.03,19.48,0,25.27v1.11c0,.93.36,1.81,1.02,2.46.69.67,1.56,1.02,2.46,1.02l107.47.19c1.92,0,3.48-1.56,3.48-3.48v-1.09c0-2.81-1.09-5.45-3.07-7.45-2-1.98-4.63-3.08-7.43-3.09l-28.02-.04-.42-5.32c-.04-2.6-1.01-4.93-2.79-6.73-1.83-1.81-4.23-2.81-6.79-2.81l-17.31-.03h0ZM48.54,9.58s.02-.02.04-.04l17.33.03s.01,0,.03.02c0,0,0,.02,0,.04v.19c.02.14.09,1.08.15,1.9l-17.7-.05c.14-1.83.14-2.02.14-2.09,0,0,0,0,0,0h0Z" style="fill:#000; stroke-width:0px;"/></svg>