<?xml version="1.0" encoding="utf-8"?>
<!-- Generator: Adobe Illustrator 28.3.0, SVG Export Plug-In . SVG Version: 6.00 Build 0)  -->
<svg version="1.1" id="Layer_1" xmlns="http://www.w3.org/2000/svg" xmlns:xlink="http://www.w3.org/1999/xlink" x="0px" y="0px"
	 viewBox="0 0 100 100" style="enable-background:new 0 0 100 100;" xml:space="preserve">
<style type="text/css">
	.st0{fill:#F7A926;stroke:#231F20;stroke-width:0.72;stroke-miterlimit:10;}
	.st1{fill:#003057;stroke:#231F20;stroke-width:0.45;stroke-miterlimit:10;}
	.st2{fill:#54B02D;stroke:#231F20;stroke-width:0.9;stroke-miterlimit:10;}
	.st3{fill:#F7A926;stroke:#231F20;stroke-width:1.79;stroke-miterlimit:10;}
	.st4{fill:#F9C780;}
	.st5{fill:#F9CC8A;}
</style>
<path class="st0" d="M74.8,37.3c1.9-2.2,3.9-4.5,5.9-6.7c-0.1-0.9-0.4-1.8-0.3-2.7c-0.6,0.1-1.2,0.2-1.7,0.3
	c-2.4,0.3-4.8,0.2-7.2,0.1c-0.1-0.6-0.2-1.2-0.3-1.8c-0.1-1.3-0.1-3.1,0-4.4c0.1-0.9,0.2-1.9,0.3-2.9c-0.9,0-1.8-0.1-2.7-0.2
	c-2.1,1.9-4.1,3.9-6.1,5.8c-0.1,0.1-0.3,0.2-0.4,0.3c-0.3-1-0.5-2.1-0.6-3.1c-0.3-3.7,0.3-7.3,1.9-10.6C66.2,6,70.2,2.5,75.9,0.6
	c4.6-1.6,11.5-0.8,15.6,2c7.2,5,9.3,13.7,6.6,21.9c-0.3,1-2,4-2.7,5c-0.4,0.6-1.2,1.5-1.8,2c-4.5,4.7-11.2,7.3-17.7,6.2
	C75.5,37.6,75.1,37.4,74.8,37.3L74.8,37.3L74.8,37.3z"/>
<path class="st1" d="M62.3,25.2c0.1-0.1,0.3-0.2,0.4-0.3c2-1.9,4.1-3.9,6.1-5.8c0.9,0.1,1.8,0.2,2.7,0.2c-0.1,0.9-0.3,1.9-0.3,2.9
	c-0.1,1.3-0.1,3.1,0,4.4c0,0.6,0.2,1.2,0.3,1.8c-6.8,7-13.5,14-20.2,21c-1.2,1.3-2.6,2.6-3.8,3.9c-1-1-3.9-3-5.2-3.8
	c-0.9-0.5-2.7-1.4-3.7-1.8l11.8-11.2l4.8-8.7l5.3-0.8C61.1,26.4,61.7,25.7,62.3,25.2L62.3,25.2L62.3,25.2z"/>
<path class="st2" d="M74.8,37.3l-1.7,1.9l-0.6,5.3L64,49.6c-3.4,3.8-6.7,7.7-10.1,11.5c-0.2,0.2-0.4,0.5-0.6,0.7
	c-0.5-1.1-1.5-2.6-2.1-3.6c-1-1.7-2.4-3.6-3.8-5c1.2-1.4,2.5-2.6,3.8-3.9c6.7-7,13.4-14.1,20.2-21c2.4,0.1,4.8,0.2,7.2-0.1
	c0.6-0.1,1.1-0.2,1.7-0.3c-0.1,0.9,0.3,1.8,0.3,2.7C78.7,32.8,76.7,35,74.8,37.3L74.8,37.3L74.8,37.3z"/>
<path class="st3" d="M38.7,47.8c14.7,5.6,20.9,22.7,13.8,36.6c-7.4,14.8-26.8,20.2-40.4,10.5C-3.9,83.4-1.6,59.3,15.3,49.7
	C22.3,45.6,31.2,44.8,38.7,47.8C38.7,47.8,38.7,47.8,38.7,47.8z"/>
<ellipse transform="matrix(0.6476 -0.762 0.762 0.6476 -42.6185 34.8469)" class="st4" cx="16.4" cy="63.5" rx="8.4" ry="4.5"/>
<ellipse transform="matrix(0.7927 -0.6096 0.6096 0.7927 10.107 46.818)" class="st5" cx="73.9" cy="8.5" rx="3.5" ry="2"/>
</svg>
