<?xml version="1.0" encoding="UTF-8"?><svg id="nonBlueprint" xmlns="http://www.w3.org/2000/svg" width="118.69" height="150.28" viewBox="0 0 118.69 150.28"><circle cx="59.34" cy="19.61" r="18.11" style="fill:#f9aa26; stroke:#000; stroke-miterlimit:10; stroke-width:3px;"/><path d="M117.16,54.9c-.47-3.81-3.73-6.64-7.56-6.58H9.1c-3.83-.07-7.1,2.77-7.56,6.58-.39,4,2.54,7.57,6.54,7.96.24.02.48.03.71.03h28.36c2.69,0,4.88,2.18,4.88,4.88v13.99c0,4.19-.62,8.35-1.87,12.35l-13.12,42.47c-1.74,4.48.48,9.53,4.96,11.27,4.48,1.74,9.53-.48,11.27-4.96.08-.22.16-.44.23-.66l12.35-40.04c.63-2.07,5-2.07,5.63,0l13.77,40.04c1.19,4.66,5.93,7.47,10.59,6.28,4.66-1.19,7.47-5.93,6.28-10.59-.12-.46-.27-.91-.46-1.34l-13.12-42.4c-1.24-4-1.87-8.16-1.87-12.35v-14.03c0-2.69,2.17-4.88,4.86-4.89h28.37c4.02,0,7.29-3.26,7.29-7.28,0-.24-.01-.48-.03-.71h0Z" style="fill:#5e5e5e; stroke:#000; stroke-miterlimit:10; stroke-width:3px;"/></svg>