<?xml version="1.0" encoding="UTF-8"?>
<svg xmlns="http://www.w3.org/2000/svg" viewBox="0 0 240 240">
  <defs>
    <style>
      .cls-1 {
        fill-rule: evenodd;
      }

      .cls-1, .cls-2 {
        fill: #f9aa26;
      }

      .cls-3 {
        fill: #5e5e5e;
      }

      .cls-4 {
        fill: none;
      }
    </style>
  </defs>
  <g id="orientConstraint">
    <rect class="cls-4" width="240" height="240"/>
    <g>
      <g>
        <path d="M49.1086,97.5213v98.2959h32.1404v8.9767h-32.1404v.0202h-8.5188v-107.2929h8.5188M57.6274,88.5447h-25.5564v125.2462h25.5564v-.0202h32.1404v-26.9301h-32.1404v-98.2959h0Z"/>
        <polygon class="cls-1" points="37.7773 207.6854 37.7773 113.6414 52.0825 113.6414 52.0825 193.1475 79.0686 193.1475 79.0686 207.669 52.0825 207.669 48.5062 207.6854 37.7773 207.6854"/>
      </g>
      <g>
        <path d="M161.4407,67.6838v55.3158H21.2478v-55.3158h140.1929M169.9595,59.165H12.729v72.3534h157.2305V59.165h0Z"/>
        <rect class="cls-3" x="18.4721" y="64.8268" width="145.7444" height="61.0298"/>
      </g>
      <g>
        <path d="M176.0824,174.4819v55.3158h-97.9769v-55.3158h97.9769M184.6012,165.9631h-115.0145v72.3534h115.0135v-72.3534h.0011Z"/>
        <rect class="cls-3" x="75.2845" y="172.3844" width="103.6199" height="59.5109"/>
      </g>
    </g>
  </g>
  <g id="Layer_3" data-name="Layer 3">
    <g>
      <path class="cls-2" d="M163.8955,114.2397c-9.7822,0-18.9834-3.8135-25.9082-10.7388-14.2861-14.2856-14.2861-37.5308,0-51.8169l38.3584-38.3584c5.1406-5.1406,11.9727-7.9717,19.2373-7.9717s14.0967,2.8311,19.2373,7.9717c5.1406,5.1401,7.9717,11.9722,7.9717,19.2373s-2.8311,14.0972-7.9717,19.2373l-36.6904,36.6909c-3.3564,3.356-7.8193,5.2041-12.5664,5.2041s-9.2109-1.8481-12.5664-5.2041c-6.9287-6.9292-6.9287-18.2036,0-25.1328l30.0195-30.0195c1.5713-1.5713,3.665-2.4365,5.8955-2.4365s4.3242.8652,5.8955,2.4365c3.25,3.251,3.25,8.5396.001,11.7905l-30.0215,30.0195c-.4199.4204-.4199,1.1313.001,1.5518.2734.2739.6035.3149.7754.3149s.501-.041.7754-.3149l36.6914-36.6909c4.1055-4.106,4.1055-10.7871,0-14.8936-1.9883-1.9878-4.6328-3.0825-7.4473-3.0825s-5.459,1.0947-7.4473,3.083l-38.3584,38.3579c-7.7842,7.7847-7.7842,20.4512,0,28.2358,3.7734,3.7725,8.7871,5.8501,14.1182,5.8501,5.332-.0005,10.3457-2.0776,14.1182-5.8501l31.6875-31.6875c1.5713-1.5713,3.665-2.4365,5.8955-2.4365s4.3232.8652,5.8945,2.4365c3.251,3.2505,3.251,8.54,0,11.7905l-31.6875,31.6875c-6.9248,6.9253-16.126,10.7388-25.9082,10.7388Z"/>
      <path d="M195.583,7.8541c6.3219,0,12.6437,2.413,17.4698,7.2391,9.6522,9.6521,9.6522,25.2874,0,34.9395l-36.6907,36.6907c-2.9811,2.9811-6.8899,4.4717-10.7987,4.4717s-7.8176-1.4906-10.7987-4.4717c-5.9623-5.9622-5.9623-15.6352,0-21.5975l30.0197-30.0197c1.1362-1.1362,2.6319-1.7042,4.1277-1.7042s2.9915.5681,4.1277,1.7042c2.2724,2.2723,2.2724,5.9831,0,8.2554l-30.0197,30.0197c-1.3967,1.3968-1.3967,3.6899,0,5.0867.6984.6984,1.6208,1.0476,2.5433,1.0476s1.845-.3492,2.5433-1.0476l36.6907-36.6907c5.0867-5.0867,5.0867-13.3421,0-18.4287-2.5433-2.5434-5.8788-3.815-9.2144-3.815s-6.671,1.2717-9.2144,3.815l-38.3585,38.3584c-8.7766,8.7766-8.7766,22.9942,0,31.7708,4.3883,4.3883,10.1369,6.5825,15.8854,6.5825s11.4971-2.1942,15.8854-6.5825l31.6874-31.6874c1.1362-1.1362,2.6319-1.7043,4.1277-1.7043s2.9915.5681,4.1277,1.7043c2.2724,2.2723,2.2724,5.9831,0,8.2554l-31.6874,31.6874c-6.6711,6.6711-15.4059,10.0066-24.1408,10.0066s-17.4698-3.3355-24.1408-10.0066c-13.3421-13.3421-13.3421-34.9396,0-48.2816l38.3585-38.3585c4.8261-4.8261,11.1479-7.2391,17.4698-7.2391M195.583,2.8541c-7.9329,0-15.3927,3.091-21.0053,8.7036l-38.3585,38.3585c-7.3972,7.3972-11.471,17.2262-11.471,27.6763s4.0738,20.2792,11.471,27.6763c7.3972,7.3972,17.2262,11.471,27.6763,11.471s20.2792-4.0738,27.6763-11.471l31.6874-31.6874c2.0434-2.0434,3.1687-4.7649,3.1687-7.6632s-1.1253-5.6199-3.1687-7.6633c-2.0433-2.0433-4.7649-3.1687-7.6632-3.1687-.1803,0-.36.0044-.5387.013l1.5309-1.5309c11.5824-11.5824,11.5824-30.4282,0-42.0106-5.6126-5.6126-13.0724-8.7036-21.0053-8.7036h0ZM188.3732,28.4151l1.5309-1.5309c1.5158-1.5158,3.5326-2.3506,5.6788-2.3506s4.1631.8348,5.6788,2.3506c1.5158,1.5158,2.3506,3.5325,2.3506,5.6788s-.8348,4.1631-2.3505,5.6789l-1.5309,1.5309c.0087-.1788.013-.3585.013-.5388,0-2.8984-1.1253-5.6199-3.1687-7.6633-2.0433-2.0433-4.7648-3.1687-7.6632-3.1687-.1803,0-.36.0043-.5388.013h0Z"/>
    </g>
  </g>
</svg>