<?xml version="1.0" encoding="UTF-8"?><svg id="Layer_1" xmlns="http://www.w3.org/2000/svg" width="100.88" height="101.05" viewBox="0 0 100.88 101.05"><g id="Layer_5"><path d="M55.86,6.32c3.69,0,7.42,1.17,10.55,3.57h0c7.39,5.67,8.7,16.08,2.91,23.26l-20.23,19.37,15.95,12.67c7.39,5.67,8.7,16.08,2.91,23.26h0c-3.34,4.13-8.3,6.29-13.32,6.29-3.69,0-7.42-1.17-10.55-3.57-10.08-8.01-28.36-24.08-31.16-26.36-8.06-7.44-9.31-18.55,1.47-27.44l28.15-24.76c3.6-3.32,8.3-6.29,13.32-6.29M55.86.88c-6.85,0-12.48,3.61-17.52,8.03l-28.46,25.13c-12.91,11.84-10.87,27.17-.6,34.94.85.69,3.16,2.69,6.08,5.21,7.17,6.18,18,15.53,25.08,21.15l.04.03.04.03c4.01,3.07,9.02,4.77,14.12,4.77,7.02,0,13.52-3.07,17.83-8.41,7.65-9.48,5.93-23.28-3.81-30.79l-11.12-8.84,15.83-15.15.26-.25.22-.28c7.66-9.49,5.93-23.32-3.85-30.82-4.01-3.07-9.02-4.77-14.12-4.77h0Z" style="fill:#f9aa26; stroke:#000; stroke-miterlimit:10; stroke-width:1.75px;"/></g><g id="Layer_4"><path d="M54.26,15.47c-4.75,0-8.62,3.69-8.62,8.23,0,.78.12,1.53.33,2.25l-1.22-1.16c-.48-.45-1.11-.7-1.77-.7h-.29c-.76.09-1.46.48-1.87,1.09l-13.13,19.47c-.99-.38-2.08-.6-3.23-.6-4.75,0-8.62,3.69-8.62,8.23s3.87,8.23,8.62,8.23c.8,0,1.58-.11,2.31-.3l-1.17,1.12c-.54.51-.89,1.25-.73,1.97.29,1.26,3.15,2.94,3.15,2.94l28.2,18.31c.41.27.89.39,1.36.39.67,0,1.3-.24,1.77-.7.86-.82.98-2.06.35-3.03l-20.69-26.63s-1.36-1.8-2.25-2.17c-1.03-.43-1.94.15-2.45.6l-1.55,1.48c.21-.7.32-1.44.32-2.21,0-1.03-.2-2.03-.57-2.94l20.53-12.49c.63-.39,1.08-1.06,1.17-1.78.1-.73-.19-1.45-.73-1.97l-1.56-1.49c.74.2,1.52.31,2.32.31,4.75,0,8.62-3.69,8.62-8.23s-3.87-8.23-8.62-8.23h0Z" style="fill:#5e5e5e; stroke:#000; stroke-miterlimit:10; stroke-width:1.75px;"/><ellipse cx="24.48" cy="52.31" rx="8.63" ry="8.24" style="fill:none; stroke:#000; stroke-miterlimit:10; stroke-width:1.75px;"/><ellipse cx="54.25" cy="23.75" rx="8.63" ry="8.24" style="fill:#5e5e5e; stroke:#000; stroke-miterlimit:10; stroke-width:1.75px;"/></g><g id="Layer_3"><path d="M72.83,47.86c-4.39,0-8.51-1.63-11.62-4.6-6.41-6.12-6.41-16.07,0-22.19l17.2-16.42c2.31-2.2,5.37-3.41,8.63-3.41s6.32,1.21,8.63,3.41c2.31,2.2,3.57,5.13,3.57,8.24s-1.27,6.04-3.57,8.24l-16.45,15.71c-1.51,1.44-3.51,2.23-5.64,2.23s-4.13-.79-5.64-2.23c-3.11-2.97-3.11-7.79,0-10.76l13.46-12.85c.7-.67,1.64-1.04,2.64-1.04s1.94.37,2.64,1.04c1.46,1.39,1.46,3.66,0,5.05l-13.46,12.85c-.19.18-.19.48,0,.66.12.12.27.13.35.13s.22-.02.35-.13l16.45-15.71c1.84-1.76,1.84-4.62,0-6.38-.89-.85-2.08-1.32-3.34-1.32s-2.45.47-3.34,1.32l-17.2,16.42c-3.49,3.33-3.49,8.76,0,12.09,1.69,1.62,3.94,2.5,6.33,2.5,2.39,0,4.64-.89,6.33-2.5l14.21-13.57c.7-.67,1.64-1.04,2.64-1.04s1.94.37,2.64,1.04c1.46,1.39,1.46,3.66,0,5.05l-14.21,13.57c-3.11,2.97-7.23,4.6-11.62,4.6h0Z" style="fill:#f9aa26; stroke-width:0px;"/><path d="M87.04,2.31c2.83,0,5.67,1.03,7.83,3.1,4.33,4.13,4.33,10.83,0,14.96l-16.45,15.71c-1.34,1.28-3.09,1.91-4.84,1.91s-3.51-.64-4.84-1.91c-2.67-2.55-2.67-6.69,0-9.25l13.46-12.85c.51-.49,1.18-.73,1.85-.73s1.34.24,1.85.73c1.02.97,1.02,2.56,0,3.53l-13.46,12.85c-.63.6-.63,1.58,0,2.18.31.3.73.45,1.14.45s.83-.15,1.14-.45l16.45-15.71c2.28-2.18,2.28-5.71,0-7.89-1.14-1.09-2.64-1.63-4.13-1.63s-2.99.54-4.13,1.63l-17.2,16.42c-3.94,3.76-3.94,9.84,0,13.6,1.97,1.88,4.55,2.82,7.12,2.82s5.16-.94,7.12-2.82l14.21-13.57c.51-.49,1.18-.73,1.85-.73s1.34.24,1.85.73c1.02.97,1.02,2.56,0,3.53l-14.21,13.57c-2.99,2.86-6.91,4.28-10.83,4.28s-7.83-1.43-10.83-4.28c-5.98-5.71-5.98-14.96,0-20.67l17.2-16.42c2.16-2.07,5-3.1,7.83-3.1M87.04.17c-3.56,0-6.9,1.32-9.42,3.73l-17.2,16.42c-3.32,3.17-5.14,7.38-5.14,11.85s1.83,8.68,5.14,11.85c3.32,3.17,7.72,4.91,12.41,4.91s9.09-1.74,12.41-4.91l14.21-13.57c.92-.87,1.42-2.04,1.42-3.28s-.5-2.41-1.42-3.28c-.92-.87-2.14-1.36-3.44-1.36-.08,0-.16,0-.24,0l.69-.66c5.19-4.96,5.19-13.03,0-17.99-2.52-2.4-5.86-3.73-9.42-3.73h0ZM83.81,11.12l.69-.66c.68-.65,1.58-1.01,2.55-1.01s1.87.36,2.55,1.01c.68.65,1.05,1.51,1.05,2.43s-.37,1.78-1.05,2.43l-.69.66c0-.08,0-.15,0-.23,0-1.24-.5-2.41-1.42-3.28-.92-.87-2.14-1.36-3.44-1.36-.08,0-.16,0-.24,0h0Z" style="fill:#000; stroke-width:0px;"/></g></svg>