<?xml version="1.0" encoding="UTF-8"?>
<svg id="animation" xmlns="http://www.w3.org/2000/svg" viewBox="0 0 98.71 98.71">
  <defs>
    <style>
      .cls-1 {
        fill: #f7aa23;
        stroke: #000;
        stroke-miterlimit: 10;
      }

      .cls-1, .cls-2 {
        stroke-width: 2px;
      }

      .cls-3 {
        fill: #f8c781;
      }

      .cls-2 {
        fill: #5e5f5f;
        stroke: #231f20;
        stroke-linejoin: round;
      }
    </style>
  </defs>
  <path id="outline" class="cls-2" d="M24.8874,70.4055l.1128.403c4.5131,15.8443,19.1808,26.9015,35.6376,26.9015,20.438,0,37.0722-16.6341,37.0722-37.0722,0-16.4568-11.0572-31.1084-26.9015-35.6376l-.403-.1128L47.9366,2.4184c-.9187-.9187-2.1276-1.4184-3.4171-1.4184s-2.4983.4997-3.4171,1.4184-1.4184,2.1276-1.4184,3.4171c0,1.2895.4997,2.4983,1.4184,3.4171l14.5387,14.5387-2.8852.6286c-4.9,1.0638-9.4615,3.0786-13.5716,6.0121l-1.1122.7898L9.2526,2.4023c-1.8214-1.8214-5.0128-1.8214-6.8342,0-.9187.9187-1.4184,2.1276-1.4184,3.4171,0,1.2895.4997,2.4983,1.4184,3.4171l28.8196,28.8196-.7898,1.1122c-2.9174,4.1102-4.9483,8.6717-6.0121,13.5716l-.6286,2.8852-14.5387-14.5387c-1.8214-1.8214-5.0128-1.8214-6.8342,0-.9187.9187-1.4184,2.1276-1.4184,3.4171s.4997,2.4983,1.4184,3.4171l22.469,22.469-.0161.0161ZM33.2528,60.6217c0-15.1029,12.2983-27.4012,27.4012-27.4012,15.1029,0,27.4012,12.2983,27.4012,27.4012,0,15.1029-12.2983,27.4012-27.4012,27.4012-15.1029,0-27.4012-12.2983-27.4012-27.4012Z"/>
  <circle id="sphere" class="cls-1" cx="60.6539" cy="60.6217" r="37.036"/>
  <ellipse id="highlight" class="cls-3" cx="79.0126" cy="44.8049" rx="7.4457" ry="13.8185" transform="translate(-10.2108 61.824) rotate(-40.3551)"/>
</svg>