<?xml version="1.0" encoding="UTF-8"?>
<svg xmlns="http://www.w3.org/2000/svg" viewBox="0 0 231.0896 237.2524">
  <defs>
    <style>
      .cls-1 {
        fill: #5e5e5e;
      }

      .cls-1, .cls-2, .cls-3 {
        stroke: #000;
        stroke-miterlimit: 10;
        stroke-width: 4px;
      }

      .cls-2, .cls-4 {
        fill: #f9aa26;
      }

      .cls-3 {
        fill: none;
      }
    </style>
  </defs>
  <g id="Layer_5" data-name="Layer 5">
    <path class="cls-2" d="M124.6143,16.0325c8.2337,0,16.5409,2.7238,23.528,8.336h.0001c16.4903,13.2456,19.3945,37.5664,6.4865,54.3223l-45.1231,45.2389,35.5672,29.6037c16.4904,13.2456,19.3945,37.5664,6.4866,54.3223h-.0001c-7.4388,9.6564-18.5034,14.6923-29.7023,14.6923-8.2337,0-16.541-2.7238-23.5281-8.336-22.4761-18.709-63.2478-56.25-69.4774-61.566-17.9814-17.3751-20.7655-43.3181,3.2861-64.0949l62.7741-57.8264c8.0293-7.7562,18.5035-14.6922,29.7024-14.6922M124.6143,3.3281c-15.2846,0-27.8194,8.4254-39.0748,18.7649l-63.4661,58.705c-28.7938,27.6439-24.2379,63.458-1.3434,81.619,1.8853,1.6203,7.0501,6.2864,13.5501,12.1589,15.9833,14.44,40.1373,36.2619,55.9212,49.4003l.0854.0711.0866.0696c8.9401,7.1808,20.1213,11.1355,31.4839,11.1355,15.6553,0,30.1497-7.1598,39.7666-19.6434,17.0515-22.1346,13.2309-54.3637-8.5004-71.9042l-24.8051-20.646,35.3054-35.3961.5737-.5751.4958-.6436c17.0764-22.1671,13.2207-54.4572-8.5951-71.9801-8.9401-7.1809-20.1213-11.1356-31.4839-11.1356h0Z"/>
  </g>
  <g id="Layer_4" data-name="Layer 4">
    <path class="cls-1" d="M121.0414,37.4154c-10.5994,0-19.2203,8.6209-19.2203,19.2203,0,1.8189.2594,3.5773.7335,5.2461l-2.7121-2.7023c-1.0599-1.0599-2.4732-1.6252-3.9571-1.6252h-.636c-1.6959.212-3.2505,1.1306-4.1691,2.5438l-29.2686,45.4857c-2.2188-.8974-4.6426-1.392-7.1935-1.392-10.5994,0-19.2203,8.6209-19.2203,19.2203s8.6209,19.2203,19.2203,19.2203c1.788,0,3.5176-.2506,5.1611-.7093l-2.6172,2.6172c-1.2013,1.2013-1.9915,2.9237-1.6253,4.5931.6463,2.9463,7.0246,6.8576,7.0246,6.8576l62.8773,42.7608c.9186.636,1.9786.9187,3.0385.9187,1.4839,0,2.8972-.5653,3.9572-1.6253,1.9079-1.9079,2.1905-4.8051.7773-7.0663l-46.1334-62.1931s-3.0438-4.2093-5.0166-5.0797c-2.294-1.012-4.3366.342-5.4672,1.4019l-3.4652,3.4652c.4588-1.6435.7093-3.3731.7093-5.1611,0-2.4167-.4452-4.7344-1.2649-6.8685l45.7826-29.1696c1.4133-.9186,2.4025-2.4732,2.6145-4.1691.212-1.6959-.424-3.3918-1.6253-4.5931l-3.4828-3.4702c1.6488.4619,3.3843.7143,5.1787.7143,10.5994,0,19.2203-8.6208,19.2203-19.2203s-8.6209-19.2203-19.2203-19.2203Z"/>
    <circle class="cls-3" cx="54.638" cy="123.4585" r="19.2401"/>
    <circle class="cls-1" cx="121.0217" cy="56.7425" r="19.2401"/>
  </g>
  <g id="Layer_3" data-name="Layer 3">
    <g>
      <path class="cls-4" d="M162.4639,113.0714c-9.7822,0-18.9834-3.8135-25.9082-10.7388-14.2861-14.2856-14.2861-37.5308,0-51.8169l38.3584-38.3584c5.1406-5.1406,11.9727-7.9717,19.2373-7.9717s14.0967,2.8311,19.2373,7.9717c5.1406,5.1401,7.9717,11.9722,7.9717,19.2373s-2.8311,14.0972-7.9717,19.2373l-36.6904,36.6909c-3.3564,3.356-7.8193,5.2041-12.5664,5.2041s-9.2109-1.8481-12.5664-5.2041c-6.9287-6.9292-6.9287-18.2036,0-25.1328l30.0195-30.0195c1.5713-1.5713,3.665-2.4365,5.8955-2.4365s4.3242.8652,5.8955,2.4365c3.25,3.251,3.25,8.5396.001,11.7905l-30.0215,30.0195c-.4199.4204-.4199,1.1313.001,1.5518.2734.2739.6035.3149.7754.3149s.501-.041.7754-.3149l36.6914-36.6909c4.1055-4.106,4.1055-10.7871,0-14.8936-1.9883-1.9878-4.6328-3.0825-7.4473-3.0825s-5.459,1.0947-7.4473,3.083l-38.3584,38.3579c-7.7842,7.7847-7.7842,20.4512,0,28.2358,3.7734,3.7725,8.7871,5.8501,14.1182,5.8501,5.332-.0005,10.3457-2.0776,14.1182-5.8501l31.6875-31.6875c1.5713-1.5713,3.665-2.4365,5.8955-2.4365s4.3232.8652,5.8945,2.4365c3.251,3.2505,3.251,8.54,0,11.7905l-31.6875,31.6875c-6.9248,6.9253-16.126,10.7388-25.9082,10.7388Z"/>
      <path d="M194.1514,6.6858c6.3219,0,12.6437,2.413,17.4698,7.2391,9.6522,9.6521,9.6522,25.2874,0,34.9395l-36.6907,36.6907c-2.9811,2.9811-6.8899,4.4717-10.7987,4.4717s-7.8176-1.4906-10.7987-4.4717c-5.9623-5.9622-5.9623-15.6352,0-21.5975l30.0197-30.0197c1.1362-1.1362,2.6319-1.7042,4.1277-1.7042s2.9915.5681,4.1277,1.7042c2.2724,2.2723,2.2724,5.9831,0,8.2554l-30.0197,30.0197c-1.3967,1.3968-1.3967,3.6899,0,5.0867.6984.6984,1.6208,1.0476,2.5433,1.0476s1.845-.3492,2.5433-1.0476l36.6907-36.6907c5.0867-5.0867,5.0867-13.3421,0-18.4287-2.5433-2.5434-5.8788-3.815-9.2144-3.815s-6.671,1.2717-9.2144,3.815l-38.3585,38.3584c-8.7766,8.7766-8.7766,22.9942,0,31.7708,4.3883,4.3883,10.1369,6.5825,15.8854,6.5825s11.4971-2.1942,15.8854-6.5825l31.6874-31.6874c1.1362-1.1362,2.6319-1.7043,4.1277-1.7043s2.9915.5681,4.1277,1.7043c2.2724,2.2723,2.2724,5.9831,0,8.2554l-31.6874,31.6874c-6.6711,6.6711-15.4059,10.0066-24.1408,10.0066s-17.4698-3.3355-24.1408-10.0066c-13.3421-13.3421-13.3421-34.9396,0-48.2816l38.3585-38.3585c4.8261-4.8261,11.1479-7.2391,17.4698-7.2391M194.1514,1.6858c-7.9329,0-15.3927,3.091-21.0053,8.7036l-38.3585,38.3585c-7.3972,7.3972-11.471,17.2262-11.471,27.6763s4.0738,20.2792,11.471,27.6763c7.3972,7.3972,17.2262,11.471,27.6763,11.471s20.2792-4.0738,27.6763-11.471l31.6874-31.6874c2.0434-2.0434,3.1687-4.7649,3.1687-7.6632s-1.1253-5.6199-3.1687-7.6633c-2.0433-2.0433-4.7649-3.1687-7.6632-3.1687-.1803,0-.36.0044-.5387.013l1.5309-1.5309c11.5824-11.5824,11.5824-30.4282,0-42.0106-5.6126-5.6126-13.0724-8.7036-21.0053-8.7036h0ZM186.9416,27.2468l1.5309-1.5309c1.5158-1.5158,3.5326-2.3506,5.6788-2.3506s4.1631.8348,5.6788,2.3506c1.5158,1.5158,2.3506,3.5325,2.3506,5.6788s-.8348,4.1631-2.3505,5.6789l-1.5309,1.5309c.0087-.1788.013-.3585.013-.5388,0-2.8984-1.1253-5.6199-3.1687-7.6633-2.0433-2.0433-4.7648-3.1687-7.6632-3.1687-.1803,0-.36.0043-.5388.013h0Z"/>
    </g>
  </g>
</svg>