<?xml version="1.0" encoding="UTF-8"?><svg id="animation" xmlns="http://www.w3.org/2000/svg" width="98.71" height="98.71" viewBox="0 0 98.71 98.71"><path id="outline" d="M24.89,70.41l.11.4c4.51,15.84,19.18,26.9,35.64,26.9,20.44,0,37.07-16.63,37.07-37.07,0-16.46-11.06-31.11-26.9-35.64l-.4-.11L47.94,2.42c-.92-.92-2.13-1.42-3.42-1.42s-2.5.5-3.42,1.42-1.42,2.13-1.42,3.42.5,2.5,1.42,3.42l14.54,14.54-2.89.63c-4.9,1.06-9.46,3.08-13.57,6.01l-1.11.79L9.25,2.4c-1.82-1.82-5.01-1.82-6.83,0-.92.92-1.42,2.13-1.42,3.42s.5,2.5,1.42,3.42l28.82,28.82-.79,1.11c-2.92,4.11-4.95,8.67-6.01,13.57l-.63,2.89-14.54-14.54c-1.82-1.82-5.01-1.82-6.83,0-.92.92-1.42,2.13-1.42,3.42s.5,2.5,1.42,3.42l22.47,22.47-.02.02h0ZM33.25,60.62c0-15.1,12.3-27.4,27.4-27.4s27.4,12.3,27.4,27.4-12.3,27.4-27.4,27.4-27.4-12.3-27.4-27.4Z" style="fill:#5e5f5f; stroke:#231f20; stroke-linejoin:round; stroke-width:2px;"/><circle id="sphere" cx="60.65" cy="60.62" r="37.04" style="fill:#f7aa23; stroke:#000; stroke-miterlimit:10; stroke-width:2px;"/><ellipse id="highlight" cx="79.01" cy="44.8" rx="7.45" ry="13.82" transform="translate(-10.21 61.82) rotate(-40.36)" style="fill:#f8c781; stroke-width:0px;"/></svg>