<?xml version="1.0" encoding="UTF-8"?>
<svg id="Layer_1" data-name="Layer 1" xmlns="http://www.w3.org/2000/svg" viewBox="0 0 99.14 101.25">
  <defs>
    <style>
      .cls-1 {
        fill: #f9c780;
      }

      .cls-2 {
        stroke-width: .72px;
      }

      .cls-2, .cls-3, .cls-4, .cls-5 {
        stroke: #231f20;
        stroke-miterlimit: 10;
      }

      .cls-2, .cls-4 {
        fill: #f7a926;
      }

      .cls-3 {
        fill: #003057;
        stroke-width: .45px;
      }

      .cls-4 {
        stroke-width: 1.79px;
      }

      .cls-5 {
        fill: #54b02d;
        stroke-width: .9px;
      }

      .cls-6 {
        fill: #f9cc8a;
      }
    </style>
  </defs>
  <path class="cls-2" d="M74.35,37.93c1.94-2.25,3.9-4.49,5.87-6.71-.05-.9-.37-1.77-.31-2.68-.57.11-1.15.25-1.72.33-2.37.3-4.83.2-7.2.08-.06-.6-.23-1.25-.27-1.84-.08-1.28-.07-3.08,0-4.37.05-.94.24-1.91.34-2.85-.9-.01-1.79-.12-2.68-.24-2.05,1.93-4.06,3.91-6.11,5.84-.12.11-.28.19-.4.3-.29-1-.5-2.08-.6-3.12-.35-3.68.32-7.27,1.89-10.59,2.57-5.44,6.66-8.92,12.32-10.9,4.64-1.62,11.52-.78,15.58,2.04,7.24,5.03,9.31,13.69,6.55,21.9-.35,1.05-2,4.04-2.66,4.99-.41.58-1.25,1.45-1.77,1.99-4.46,4.74-11.17,7.31-17.7,6.15-.36-.06-.78-.19-1.13-.32Z"/>
  <path class="cls-3" d="M61.87,25.79c.12-.11.28-.19.4-.3,2.05-1.93,4.06-3.91,6.11-5.84.89.11,1.78.23,2.68.24-.1.94-.29,1.91-.34,2.85-.07,1.29-.08,3.08,0,4.37.04.6.21,1.24.27,1.84-6.79,6.96-13.47,14.02-20.2,21.04-1.25,1.31-2.56,2.57-3.76,3.92-1.02-1-3.89-3.05-5.15-3.81-.92-.55-2.7-1.39-3.71-1.76l11.81-11.24,4.78-8.74,5.26-.81c.69-.5,1.23-1.18,1.84-1.75Z"/>
  <path class="cls-5" d="M74.35,37.93l-1.66,1.93-.63,5.3-8.44,5.08c-3.38,3.83-6.74,7.67-10.1,11.51-.19.22-.44.48-.57.74-.48-1.06-1.45-2.56-2.07-3.6-1.03-1.72-2.4-3.58-3.84-4.99,1.2-1.36,2.51-2.62,3.76-3.92,6.73-7.02,13.41-14.08,20.2-21.04,2.38.12,4.83.22,7.2-.08.57-.07,1.15-.22,1.72-.33-.07.91.26,1.78.31,2.68-1.98,2.22-3.93,4.46-5.87,6.71Z"/>
  <path class="cls-4" d="M38.3,48.38c14.66,5.57,20.9,22.72,13.82,36.58-7.36,14.78-26.75,20.23-40.36,10.54-16.06-11.52-13.74-35.61,3.12-45.19,6.99-4.07,15.88-4.86,23.4-1.93h.02Z"/>
  <ellipse class="cls-1" cx="15.93" cy="64.13" rx="8.35" ry="4.5" transform="translate(-43.25 34.74) rotate(-49.64)"/>
  <ellipse class="cls-6" cx="73.47" cy="9.17" rx="3.46" ry="2.02" transform="translate(9.64 46.69) rotate(-37.56)"/>
</svg>