<?xml version="1.0" encoding="UTF-8"?><svg id="Layer_1" xmlns="http://www.w3.org/2000/svg" width="100" height="100" viewBox="0 0 100 100"><g id="orientConstraint"><rect width="100" height="100" style="fill:none; stroke-width:0px;"/><path d="M20.46,40.63v40.96h13.39v3.74h-13.39s-3.55,0-3.55,0v-44.71h3.55M24.01,36.89h-10.65v52.19h10.65s13.39,0,13.39,0v-11.22h-13.39v-40.96h0Z" style="fill:#000; stroke-width:0px;"/><polygon points="15.74 86.54 15.74 47.35 21.7 47.35 21.7 80.48 32.95 80.48 32.95 86.53 21.7 86.53 20.21 86.54 15.74 86.54" style="fill:#f9aa26; fill-rule:evenodd; stroke-width:0px;"/><path d="M67.27,28.2v23.05H8.85v-23.05h58.41M70.82,24.65H5.3v30.15h65.51v-30.15h0Z" style="fill:#000; stroke-width:0px;"/><rect x="7.7" y="27.01" width="60.73" height="25.43" style="fill:#5e5e5e; stroke-width:0px;"/><path d="M73.37,72.7v23.05h-40.82v-23.05h40.82M76.92,69.15H28.99v30.15h47.92v-30.15h0,0Z" style="fill:#000; stroke-width:0px;"/><rect x="31.37" y="71.83" width="43.17" height="24.8" style="fill:#5e5e5e; stroke-width:0px;"/></g><g id="Layer_3"><path d="M68.29,47.6c-4.08,0-7.91-1.59-10.8-4.47-5.95-5.95-5.95-15.64,0-21.59l15.98-15.98c2.14-2.14,4.99-3.32,8.02-3.32s5.87,1.18,8.02,3.32c2.14,2.14,3.32,4.99,3.32,8.02s-1.18,5.87-3.32,8.02l-15.29,15.29c-1.4,1.4-3.26,2.17-5.24,2.17s-3.84-.77-5.24-2.17c-2.89-2.89-2.89-7.58,0-10.47l12.51-12.51c.65-.65,1.53-1.02,2.46-1.02s1.8.36,2.46,1.02c1.35,1.35,1.35,3.56,0,4.91l-12.51,12.51c-.17.18-.17.47,0,.65.11.11.25.13.32.13s.21-.02.32-.13l15.29-15.29c1.71-1.71,1.71-4.49,0-6.21-.83-.83-1.93-1.28-3.1-1.28s-2.27.46-3.1,1.28l-15.98,15.98c-3.24,3.24-3.24,8.52,0,11.76,1.57,1.57,3.66,2.44,5.88,2.44,2.22,0,4.31-.87,5.88-2.44l13.2-13.2c.65-.65,1.53-1.02,2.46-1.02s1.8.36,2.46,1.02c1.35,1.35,1.35,3.56,0,4.91l-13.2,13.2c-2.89,2.89-6.72,4.47-10.8,4.47h0Z" style="fill:#f9aa26; stroke-width:0px;"/><path d="M81.49,3.27c2.63,0,5.27,1.01,7.28,3.02,4.02,4.02,4.02,10.54,0,14.56l-15.29,15.29c-1.24,1.24-2.87,1.86-4.5,1.86s-3.26-.62-4.5-1.86c-2.48-2.48-2.48-6.51,0-9l12.51-12.51c.47-.47,1.1-.71,1.72-.71s1.25.24,1.72.71c.95.95.95,2.49,0,3.44l-12.51,12.51c-.58.58-.58,1.54,0,2.12.29.29.68.44,1.06.44s.77-.15,1.06-.44l15.29-15.29c2.12-2.12,2.12-5.56,0-7.68-1.06-1.06-2.45-1.59-3.84-1.59s-2.78.53-3.84,1.59l-15.98,15.98c-3.66,3.66-3.66,9.58,0,13.24,1.83,1.83,4.22,2.74,6.62,2.74s4.79-.91,6.62-2.74l13.2-13.2c.47-.47,1.1-.71,1.72-.71s1.25.24,1.72.71c.95.95.95,2.49,0,3.44l-13.2,13.2c-2.78,2.78-6.42,4.17-10.06,4.17s-7.28-1.39-10.06-4.17c-5.56-5.56-5.56-14.56,0-20.12l15.98-15.98c2.01-2.01,4.64-3.02,7.28-3.02M81.49,1.19c-3.31,0-6.41,1.29-8.75,3.63l-15.98,15.98c-3.08,3.08-4.78,7.18-4.78,11.53s1.7,8.45,4.78,11.53c3.08,3.08,7.18,4.78,11.53,4.78s8.45-1.7,11.53-4.78l13.2-13.2c.85-.85,1.32-1.99,1.32-3.19s-.47-2.34-1.32-3.19c-.85-.85-1.99-1.32-3.19-1.32-.08,0-.15,0-.22,0l.64-.64c4.83-4.83,4.83-12.68,0-17.5-2.34-2.34-5.45-3.63-8.75-3.63h0ZM78.49,11.84l.64-.64c.63-.63,1.47-.98,2.37-.98s1.73.35,2.37.98c.63.63.98,1.47.98,2.37s-.35,1.73-.98,2.37l-.64.64c0-.07,0-.15,0-.22,0-1.21-.47-2.34-1.32-3.19-.85-.85-1.99-1.32-3.19-1.32-.08,0-.15,0-.22,0h0Z" style="fill:#000; stroke-width:0px;"/></g></svg>