<?xml version="1.0" encoding="UTF-8"?>
<svg xmlns="http://www.w3.org/2000/svg" viewBox="0 0 100 100">
  <defs>
    <style>
      .cls-1 {
        fill: none;
      }

      .cls-2 {
        stroke-linecap: round;
        stroke-width: 1.94px;
      }

      .cls-2, .cls-3 {
        stroke: #000;
        stroke-miterlimit: 10;
      }

      .cls-2, .cls-4 {
        fill: #444;
      }

      .cls-3 {
        fill: #f9aa26;
      }
    </style>
  </defs>
  <g id="Layer_2" data-name="Layer 2">
    <path class="cls-4" d="M0,0v100h100V0H0ZM50,75.13c-13.88,0-25.13-11.25-25.13-25.13s11.25-25.13,25.13-25.13,25.13,11.25,25.13,25.13-11.25,25.13-25.13,25.13Z"/>
  </g>
  <g id="Layer_1" data-name="Layer 1">
    <rect class="cls-1" x="20.91" y="20.91" width="58.17" height="58.17"/>
    <path class="cls-3" d="M90.61,51.41c-1.43-20.09-19.32-36.61-39.55-35.5,0,0,0,1,0,1,13.59.73,26.16,10.08,30.56,22.89,1.33,3.76,1.94,7.71,1.85,11.61h-4.39l7.98,13.83,7.98-13.83h-4.43Z"/>
    <path class="cls-3" d="M9.75,48.14c1.43,20.09,19.32,36.61,39.55,35.5,0,0,0-1,0-1-13.59-.73-26.16-10.08-30.56-22.89-1.33-3.76-1.94-7.71-1.85-11.61h4.39l-7.98-13.83-7.98,13.83h4.43Z"/>
  </g>
  <g id="Layer_4" data-name="Layer 4">
    <rect class="cls-1" x="21.33" y="20.82" width="58.17" height="58.17"/>
    <g>
      <path d="M50.01,75c-3.47,0-6.64-2.68-8.92-7.54-2.18-4.63-3.37-10.86-3.37-17.54s1.2-12.91,3.37-17.54c2.28-4.86,5.45-7.54,8.92-7.54s6.64,2.68,8.92,7.54c2.18,4.63,3.37,10.86,3.37,17.54s-1.2,12.91-3.37,17.54c-2.28,4.86-5.45,7.54-8.92,7.54ZM50.01,28.7c-3.98,0-8.42,8.71-8.42,21.21s4.44,21.21,8.42,21.21,8.42-8.71,8.42-21.21-4.44-21.21-8.42-21.21Z"/>
      <path d="M50.01,25.8c6.35,0,11.33,10.59,11.33,24.12s-4.97,24.12-11.33,24.12-11.33-10.59-11.33-24.12,4.97-24.12,11.33-24.12h0ZM50.01,72.09c5.09,0,9.39-10.16,9.39-22.18s-4.3-22.18-9.39-22.18-9.39,10.16-9.39,22.18,4.3,22.18,9.39,22.18h0ZM50.01,23.86c-3.87,0-7.35,2.88-9.8,8.1-2.23,4.76-3.47,11.13-3.47,17.95s1.23,13.2,3.47,17.95c2.45,5.22,5.93,8.1,9.8,8.1s7.35-2.88,9.8-8.1c2.23-4.76,3.47-11.13,3.47-17.95s-1.23-13.2-3.47-17.95c-2.45-5.22-5.93-8.1-9.8-8.1h0ZM50.01,70.15c-1.56,0-3.41-2.07-4.82-5.4-1.67-3.95-2.63-9.36-2.63-14.84s.96-10.89,2.63-14.84c1.41-3.33,3.25-5.4,4.82-5.4s3.41,2.07,4.82,5.4c1.67,3.95,2.63,9.36,2.63,14.84s-.96,10.89-2.63,14.84c-1.41,3.33-3.25,5.4-4.82,5.4h0Z"/>
    </g>
    <g>
      <path d="M50.01,57.94c-9.11,0-24.53-1.69-24.53-8.03,0-2.66,2.71-4.74,8.05-6.18,4.43-1.19,10.28-1.85,16.48-1.85,9.11,0,24.53,1.69,24.53,8.03,0,2.66-2.71,4.74-8.05,6.18-4.43,1.19-10.28,1.85-16.48,1.85ZM29.37,49.92c.17.32,1.41,1.44,5.54,2.51,4.09,1.06,9.45,1.64,15.1,1.64s11.36-.61,15.47-1.72c3.75-1.01,4.98-2.08,5.17-2.45-.17-.32-1.41-1.44-5.54-2.51-4.09-1.06-9.45-1.64-15.1-1.64s-11.36.61-15.47,1.72c-3.75,1.01-4.98,2.08-5.17,2.45Z"/>
      <path d="M50.01,42.85c11.71,0,23.56,2.43,23.56,7.06,0,2.14-2.54,3.95-7.33,5.25-4.35,1.17-10.11,1.82-16.23,1.82-11.71,0-23.56-2.43-23.56-7.06,0-2.14,2.54-3.95,7.33-5.25,4.35-1.17,10.11-1.82,16.23-1.82h0ZM50.01,55.04c5.95,0,11.54-.62,15.72-1.75,4.35-1.17,5.9-2.55,5.9-3.37,0-2.09-8.42-5.12-21.62-5.12-5.95,0-11.54.62-15.72,1.75-4.35,1.17-5.9,2.55-5.9,3.37,0,2.09,8.42,5.12,21.62,5.12h0ZM50.01,40.91c-6.28,0-12.23.67-16.73,1.89-5.82,1.57-8.77,3.96-8.77,7.12s2.97,5.57,8.83,7.14c4.47,1.2,10.39,1.86,16.67,1.86s12.23-.67,16.73-1.89c5.82-1.57,8.77-3.96,8.77-7.12s-2.97-5.57-8.83-7.14c-4.47-1.2-10.39-1.86-16.67-1.86h0ZM30.88,49.91c.68-.4,1.9-.96,3.92-1.5,4.03-1.09,9.43-1.68,15.22-1.68,6.66,0,11.35.77,14.11,1.42,2.66.63,4.22,1.3,5.03,1.76-.68.4-1.9.96-3.92,1.5-4.03,1.09-9.43,1.68-15.22,1.68-6.66,0-11.35-.77-14.11-1.42-2.66-.63-4.22-1.3-5.03-1.76h0Z"/>
    </g>
    <path class="cls-2" d="M50.01,24.78c-13.88,0-25.13,11.25-25.13,25.13s11.25,25.13,25.13,25.13,25.13-11.25,25.13-25.13-11.25-25.13-25.13-25.13ZM50.01,71.1c-11.7,0-21.19-9.49-21.19-21.19s9.49-21.19,21.19-21.19,21.19,9.49,21.19,21.19-9.49,21.19-21.19,21.19Z"/>
    <path class="cls-4" d="M50.01,74.03c-6.35,0-11.33-10.59-11.33-24.12s4.97-24.12,11.33-24.12,11.33,10.59,11.33,24.12-4.97,24.12-11.33,24.12ZM50.01,27.73c-5.09,0-9.39,10.16-9.39,22.18s4.3,22.18,9.39,22.18,9.39-10.16,9.39-22.18-4.3-22.18-9.39-22.18Z"/>
    <path class="cls-4" d="M50.01,56.97c-11.71,0-23.56-2.43-23.56-7.06,0-2.14,2.54-3.95,7.33-5.25,4.35-1.17,10.11-1.82,16.23-1.82,11.71,0,23.56,2.43,23.56,7.06,0,2.14-2.54,3.95-7.33,5.25-4.35,1.17-10.11,1.82-16.23,1.82ZM50.01,44.79c-5.95,0-11.54.62-15.72,1.75-4.35,1.17-5.9,2.55-5.9,3.37,0,2.09,8.42,5.12,21.62,5.12,5.95,0,11.54-.62,15.72-1.75,4.35-1.17,5.9-2.55,5.9-3.37,0-2.09-8.42-5.12-21.62-5.12Z"/>
  </g>
</svg>