<?xml version="1.0" encoding="UTF-8"?>
<svg xmlns="http://www.w3.org/2000/svg" viewBox="0 0 240 240">
  <defs>
    <style>
      .cls-1 {
        fill: #444;
        fill-rule: evenodd;
      }

      .cls-2 {
        fill: none;
        stroke: #000;
        stroke-miterlimit: 10;
        stroke-width: 4px;
      }

      .cls-3 {
        fill: #f9aa26;
      }
    </style>
  </defs>
  <g id="Background">
    <path class="cls-1" d="M0,0v240h240V0H0ZM80.8,214.84c-1.97,3.5-5.68,5.57-9.94,5.57-1.42,0-2.84-.22-4.15-.76-.55-.22-14.64-5.35-28.84-14.09-20.98-12.78-31.58-26.66-31.69-41.08-.11-20.1,20.65-38.13,61.73-53.54h.11c30.59-11.47,48.07-24.36,48.07-35.29-.11-15.19-31.58-31.79-46.76-37.37-2.95-1.09-5.14-3.17-6.12-5.9-.87-2.4-.76-5.14.55-7.43,1.86-3.39,5.57-5.46,9.83-5.46,1.42,0,2.84.22,4.15.76.55.22,14.64,5.46,28.74,14.2,20.87,12.89,31.47,26.66,31.47,41.19.11,19.99-20.54,38.02-61.4,53.32h-.11c-30.81,11.58-48.51,24.47-48.4,35.4.11,15.19,31.79,31.58,47.09,37.15,2.95,1.09,5.14,3.17,6.23,5.9.98,2.4.76,5.14-.55,7.43ZM232.79,99.85l-.05.05c-3.68,10.49-13.42,18.23-25.21,18.78-2.54.12-5.02-.1-7.39-.63l5.17,4.71c1.63,1.58,2.55,3.6,2.65,5.77.02.31.03.62.04.72-.2,2.49-1.53,4.82-3.53,6.26l-76.61,54.04c-3.21,2.22-7.45,2.01-10.37-.65-1.62-1.47-2.54-3.49-2.64-5.66-.07-1.54.26-3.11,1.13-4.5l46.92-81.06c1.24-2.12,3.45-3.57,5.91-3.99,2.46-.43,4.98.38,6.81,2.05l3.84,3.5c-.74-2.32-1.2-4.76-1.32-7.31-.73-15.5,11.24-28.67,26.75-29.4h.07c15.46-.73,28.64,11.26,29.36,26.73.18,3.72-.38,7.29-1.53,10.59Z"/>
  </g>
  <g id="Spline">
    <path d="M73.37,22.96c.88,0,1.86.11,2.74.44.54.22,14.2,5.24,27.97,13.76,19.44,12.02,30.39,25.59,30.39,38.48.11,18.03-19.56,34.64-58.57,49.28h-.11c-23.49,8.85-51.35,22.83-51.24,39.55.11,19.01,35.06,35.27,48.93,40.3,3.28,1.2,4.81,5.37,3.39,8.1-1.09,1.97-3.5,4.17-6.01,4.17-.87,0-1.75-.11-2.62-.44-.55-.22-14.2-5.24-28.08-13.66-19.56-11.9-30.5-25.47-30.61-38.36-.11-18.03,19.67-34.75,58.89-49.5,23.23-8.72,50.92-22.67,50.92-39.35v-.09c-.11-19.01-34.84-35.38-48.61-40.41-3.28-1.2-4.81-5.37-3.28-8.1.99-1.97,3.39-4.17,5.9-4.17M73.37,18.96c-4.27,0-7.87,3.25-9.43,6.3-1.25,2.29-1.41,5.12-.42,7.77,1.04,2.8,3.18,4.97,5.86,5.96,18.44,6.74,45.9,22.06,45.98,36.68v.07c0,11.1-17.61,24.08-48.33,35.61-40.92,15.39-61.61,33.31-61.48,53.27.12,14.24,11.67,29.06,32.53,41.75,12.13,7.36,23.99,12.17,28.53,13.9l.16.06h.02s.04.02.04.02c1.24.47,2.56.7,4.04.7,4.19,0,7.79-3.13,9.51-6.23l.02-.05.02-.05c1.21-2.32,1.31-5.18.27-7.85-1.07-2.75-3.2-4.89-5.84-5.85-18.57-6.74-46.22-22.03-46.3-36.57-.07-11.15,16.95-23.75,47.97-35.53h.1l.68-.26c19.83-7.44,35.01-15.53,45.13-24.05,10.7-9.01,16.1-18.77,16.04-29,0-14.32-11.16-28.8-32.29-41.86-11.97-7.41-23.85-12.26-28.41-14l-.18-.07h-.03s-.05-.03-.05-.03c-1.23-.46-2.62-.69-4.14-.69h0Z"/>
    <g>
      <g>
        <path d="M68.24,10.74v34.31h-34.31V10.74h34.31M76.98,2H25.19v51.79h51.79V2h0Z"/>
        <rect class="cls-3" x="29.56" y="6.37" width="43.05" height="43.05"/>
      </g>
      <rect x="43.53" y="20.45" width="15" height="15"/>
    </g>
    <g>
      <g>
        <path d="M111.94,194.95v34.31h-34.31v-34.31h34.31M120.68,186.21h-51.79v51.79h51.79v-51.79h0Z"/>
        <rect class="cls-3" x="73.26" y="190.58" width="43.05" height="43.05"/>
      </g>
      <rect x="87.23" y="204.55" width="15" height="15"/>
    </g>
  </g>
  <g id="Joint">
    <path class="cls-2" d="M234.26,98.36c1.16-3.3,1.71-6.87,1.54-10.59-.73-15.47-13.9-27.45-29.37-26.72-15.47.73-27.45,13.9-26.72,29.37.12,2.61.61,5.12,1.39,7.48l-4-3.64c-1.84-1.67-4.35-2.48-6.81-2.06-2.46.43-4.67,1.87-5.91,4l-46.92,81.06c-.86,1.38-1.2,2.95-1.13,4.5.1,2.17,1.02,4.19,2.64,5.66,2.92,2.65,7.16,2.87,10.36.65l76.61-54.04c2-1.44,3.34-3.77,3.53-6.26l-.03-.72c-.1-2.17-1.02-4.19-2.65-5.77l-5.29-4.82c2.43.56,4.97.8,7.58.68,3.53-.17,6.88-.98,9.94-2.32"/>
    <circle class="cls-2" cx="207.69" cy="89.12" r="28.11"/>
  </g>
</svg>