<?xml version="1.0" encoding="UTF-8"?>
<svg xmlns="http://www.w3.org/2000/svg" viewBox="0 0 100 100">
  <defs>
    <style>
      .cls-1 {
        fill: #444;
      }

      .cls-2 {
        fill: #f9aa26;
      }
    </style>
  </defs>
  <g id="Layer_4" data-name="Layer 4">
    <path class="cls-1" d="M0,0v100h100V0H0ZM76.96,63.92v-.02c0,2.62-1.21,5.11-3.26,6.75,2.05,1.64,3.25,4.09,3.25,6.75s-1.21,5.15-3.28,6.77c2.06,1.63,3.28,4.11,3.28,6.77,0,4.77-3.88,8.66-8.64,8.66h-20.19c-7.54,0-14.03-2.85-18.78-8.23-4.47-5.05-7.02-12.09-7.2-19.8,0-.69,0-2.22.04-2.77l.02-.58c.16-6.05.4-15.18,5.91-22.57,1.14-1.54,2.16-2.65,2.9-3.46,2.54-2.81,4.21-4.65,6.49-15.11,1.39-6.55,4.85-9.56,10.29-8.93,7.14.83,9.46,8.68,8.61,16.1-.32,2.89-1.34,5.62-2.32,7.44h8.07c.1,0,.2,0,.32,0,.12,0,.24,0,.35,0h5.51c4.76,0,8.64,3.89,8.64,8.66,0,2.66-1.23,5.15-3.3,6.79,2.08,1.66,3.3,4.15,3.3,6.79Z"/>
  </g>
  <g id="Layer_2" data-name="Layer 2">
    <path d="M76.96,63.92c0-2.64-1.22-5.14-3.3-6.79,2.07-1.64,3.3-4.13,3.3-6.79,0-4.77-3.88-8.66-8.64-8.66h-5.51c-.11,0-.23,0-.35,0-.11,0-.21,0-.32,0h-8.07c.98-1.82,2-4.55,2.32-7.44.86-7.42-1.47-15.27-8.61-16.1-5.44-.62-8.9,2.38-10.29,8.93-2.28,10.46-3.94,12.3-6.49,15.11-.74.81-1.76,1.93-2.9,3.46-5.51,7.39-5.75,16.52-5.91,22.57l-.02.58c-.04.55-.04,2.08-.04,2.77.18,7.71,2.74,14.75,7.2,19.8,4.75,5.39,11.24,8.23,18.78,8.23h20.19c4.76,0,8.64-3.89,8.64-8.66,0-2.66-1.22-5.15-3.28-6.77,2.07-1.63,3.28-4.11,3.28-6.77s-1.2-5.12-3.25-6.75c2.05-1.64,3.25-4.12,3.25-6.75v.02ZM51.58,42.12c-.07.11-.16.31-.16.54v.14c0,.12.04.24.1.33.27.6,3.6,8.2.67,15.02-1.93,4.48-6.09,7.77-12.38,9.78-.24.07-.44.24-.56.47-.12.22-.14.48-.07.72.11.41.48.68.92.68.07,0,.18,0,.3-.05,6.87-2.21,11.43-5.85,13.57-10.85.61-1.43,1.02-2.94,1.22-4.51.56,1.05,1.33,1.97,2.28,2.73-2.07,1.64-3.3,4.13-3.3,6.79s1.2,5.12,3.25,6.75c-2.05,1.64-3.25,4.12-3.25,6.75s1.22,5.15,3.28,6.77c-2.07,1.63-3.28,4.11-3.28,6.77s1.21,5.11,3.24,6.75l-9.29.02c-13.8,0-23.69-10.76-24.06-26.18,0-1.29.02-2.27.04-2.63l.02-.6c.16-5.81.39-14.58,5.55-21.49,1-1.36,1.9-2.34,2.7-3.22l.09-.1c2.73-3.01,4.53-5.01,6.91-15.98.71-3.28,2.21-7.48,7.1-7.48.35,0,.72.02,1.1.07,5.82.68,7.66,7.51,6.91,13.97-.4,3.48-1.95,6.73-2.91,8.07h.02ZM68.31,57.06h-5.51c-3.7,0-6.72-3.01-6.72-6.72,0-3.46,2.69-6.4,6.08-6.7l6.14-.02h.04c1.77,0,3.44.69,4.7,1.94,1.28,1.27,1.98,2.97,1.98,4.77,0,3.7-3.01,6.72-6.72,6.72ZM54.79,47.09c-.25-1.15-.59-2.32-1-3.44h3.55c-1.13.92-2,2.11-2.55,3.44ZM59.21,85.3c1.14.52,2.35.79,3.59.79h5.51c1.27,0,2.48-.26,3.6-.79,1.94,1.23,3.13,3.38,3.13,5.68,0,3.72-3.01,6.75-6.72,6.75h-5.51c-3.7,0-6.72-3.02-6.72-6.75,0-2.3,1.19-4.46,3.13-5.68h0ZM68.31,84.14h-5.51c-3.7,0-6.72-3.01-6.72-6.72,0-2.31,1.15-4.41,3.11-5.67,1.15.53,2.37.81,3.64.81h5.51c1.24,0,2.49-.28,3.63-.81,1.93,1.26,3.07,3.36,3.07,5.67,0,3.7-3.01,6.72-6.72,6.72h0ZM68.31,70.64h-5.51c-3.7,0-6.72-3.02-6.72-6.74,0-2.32,1.21-4.48,3.16-5.71,1.13.51,2.33.77,3.57.77h5.51c1.24,0,2.47-.27,3.57-.77,1.95,1.23,3.16,3.39,3.16,5.68-.04,3.73-3.07,6.76-6.76,6.76h0Z"/>
  </g>
  <g id="Layer_3" data-name="Layer 3">
    <g>
      <rect class="cls-2" x="43.58" y="1.36" width="5.97" height="12.66" rx="1" ry="1"/>
      <path d="M48.55,2.36v10.66h-3.97V2.36h3.97M48.55.36h-3.97c-1.1,0-2,.9-2,2v10.66c0,1.1.9,2,2,2h3.97c1.1,0,2-.9,2-2V2.36c0-1.1-.9-2-2-2h0Z"/>
    </g>
    <g>
      <path class="cls-2" d="M34.42,19.05c-.27,0-.52-.1-.71-.29l-7.54-7.54c-.19-.19-.29-.44-.29-.71s.1-.52.29-.71l2.81-2.81c.19-.19.44-.29.71-.29s.52.1.71.29l7.54,7.54c.19.19.29.44.29.71s-.1.52-.29.71l-2.81,2.81c-.19.19-.44.29-.71.29Z"/>
      <path d="M29.69,7.7l7.54,7.54-2.81,2.81-7.54-7.54,2.8-2.8s0,0,0,0h0M29.69,5.71c-.51,0-1.03.19-1.41.58l-2.81,2.81c-.78.78-.78,2.05,0,2.83l7.54,7.54c.39.39.9.58,1.41.58s1.03-.19,1.41-.58l2.81-2.81c.78-.78.78-2.05,0-2.83l-7.54-7.54c-.39-.39-.9-.58-1.41-.58h0Z"/>
    </g>
    <g>
      <path class="cls-2" d="M58.59,19.02c-.27,0-.52-.1-.71-.29l-2.81-2.81c-.39-.39-.39-1.02,0-1.41l7.54-7.54c.19-.19.44-.29.71-.29s.52.1.71.29l2.81,2.81c.39.39.39,1.02,0,1.41l-7.54,7.54c-.19.19-.44.29-.71.29Z"/>
      <path d="M63.32,7.68l2.81,2.81-7.54,7.54-2.81-2.81,7.53-7.53s0,0,0,0h0M63.32,5.68c-.51,0-1.03.19-1.41.58l-7.54,7.54c-.78.78-.78,2.05,0,2.83l2.81,2.81c.39.39.9.58,1.41.58s1.03-.19,1.41-.58l7.54-7.54c.78-.78.78-2.05,0-2.83l-2.81-2.81c-.39-.39-.9-.58-1.41-.58h0Z"/>
    </g>
  </g>
</svg>