<?xml version="1.0" encoding="UTF-8"?>
<svg id="trashcan" xmlns="http://www.w3.org/2000/svg" viewBox="0 0 129.5488 149.8602">
  <defs>
    <style>
      .cls-1 {
        fill: #5e5e5e;
      }

      .cls-2 {
        fill: #bdbdbd;
      }
    </style>
  </defs>
  <g>
    <g>
      <path class="cls-2" d="M28.0527,148.8605c-3.6338,0-6.7212-2.7041-7.1821-6.2891L9.041,56.0538h-.1743c-3.9648,0-7.1904-3.21-7.1904-7.1562,0-3.9395,3.2256-7.1445,7.1904-7.1445h110.9731c3.959,0,7.1797,3.21,7.1797,7.1562,0,3.9395-3.2207,7.1445-7.1797,7.1445h-.5596l-11.6377,86.5234c-.4609,3.5791-3.5537,6.2832-7.1934,6.2832H28.0527Z"/>
      <path d="M119.8402,42.7529c3.4139,0,6.1791,2.7653,6.1791,6.1564s-2.7652,6.145-6.1791,6.145h-1.4338l-11.7551,87.3893c-.3983,3.0953-3.0611,5.4167-6.2019,5.4167H28.0526c-3.1522,0-5.7922-2.3214-6.1905-5.4167L9.9135,55.0543h-1.047c-3.4253,0-6.1905-2.7539-6.1905-6.1564,0-3.3797,2.7652-6.145,6.1905-6.145h110.9736M119.8402,40.7529H8.8666c-4.5163,0-8.1905,3.6538-8.1905,8.145,0,4.2619,3.2994,7.7709,7.4882,8.1267l11.7162,85.6899c.5232,4.067,4.0373,7.1457,8.1721,7.1457h72.3968c4.1412,0,7.6602-3.0788,8.1855-7.1615l11.5213-85.6505c4.3643-.1657,7.8632-3.7531,7.8632-8.139,0-4.4974-3.6691-8.1564-8.1791-8.1564h0Z"/>
    </g>
    <g>
      <path class="cls-1" d="M28.0527,147.3605c-2.8813,0-5.3296-2.1416-5.6943-4.9805L10.3501,54.5538h-1.4834c-3.1377,0-5.6904-2.5371-5.6904-5.6562,0-3.1123,2.5527-5.6445,5.6904-5.6445h110.9731c3.1318,0,5.6797,2.5371,5.6797,5.6562,0,3.1123-2.5479,5.6445-5.6797,5.6445h-1.8711l-11.813,87.8232c-.3657,2.8418-2.8188,4.9834-5.7065,4.9834H28.0527ZM89.3052,56.9483c-4.1973.0195-5.377,4.8564-5.415,7.4111l-1.832,63.0586c-.1475,4.3721,1.981,8.0068,4.8457,8.2734l.3081.002c2.7378,0,4.9971-3.2607,5.1426-7.4238l1.8325-63.0576c.0103-.1797.2451-4.7422-1.8965-7.0098-.7856-.832-1.7861-1.2539-2.9736-1.2539h-.0117ZM64.3535,56.9366c-2.8423,0-5.1543,3.5225-5.1543,7.8516v63.0654c0,4.3232,2.312,7.8398,5.1543,7.8398s5.1543-3.5166,5.1543-7.8398v-63.0654c0-4.3291-2.312-7.8516-5.1543-7.8516ZM39.7075,56.9327c-.1147,0-.2305.0059-.3467.0186-2.8589.2529-4.9883,3.8828-4.8408,8.2627l1.8315,63.0527c.146,4.166,2.4053,7.4268,5.1431,7.4268h.2617c2.9111-.2695,5.04-3.9053,4.8921-8.2773l-1.8315-63.0635c-.1528-4.1621-2.397-7.4199-5.1094-7.4199Z"/>
      <path d="M119.8402,43.7529c2.8558,0,5.1791,2.3131,5.1791,5.1564,0,2.837-2.3233,5.145-5.1791,5.145h-2.3083l-.1166.8667-11.7559,87.395c-.3333,2.5907-2.5732,4.5443-5.2101,4.5443H28.0526c-2.6304,0-4.8653-1.9536-5.1997-4.5522L10.9043,54.9188l-.1182-.8645h-1.9196c-2.8621,0-5.1905-2.3131-5.1905-5.1564,0-2.837,2.3284-5.145,5.1905-5.145h110.9736M41.4946,136.1934h.3083l.0463-.0043c3.1277-.2919,5.4553-4.153,5.2992-8.7856l-1.8324-63.0731c-.1622-4.4286-2.6257-7.8976-5.6085-7.8974-.1319,0-.2648.0068-.3835.0191-3.1307.277-5.4605,4.1333-5.304,8.7746l1.8324,63.0601c.1577,4.5075,2.5833,7.9065,5.6422,7.9065M64.3534,136.1934c3.1706,0,5.6542-3.6633,5.6542-8.3398v-63.0657c0-4.6829-2.4836-8.3512-5.6542-8.3512s-5.6542,3.6683-5.6542,8.3512v63.0657c0,4.6765,2.4836,8.3398,5.6542,8.3398M86.904,136.1934h.3081c3.0589,0,5.4845-3.3991,5.6424-7.9125l1.8309-63.0261c.0115-.2019.2565-4.9735-2.0318-7.3964-.8838-.9358-2.0065-1.4102-3.3524-1.4102-4.5832.0216-5.8707,5.1795-5.9109,7.8897l-1.8319,63.0609c-.1563,4.6385,2.1714,8.4997,5.2994,8.7903l.0462.0043M119.8402,42.7529H8.8666c-3.4253,0-6.1905,2.7653-6.1905,6.145,0,3.4025,2.7652,6.1564,6.1905,6.1564h1.047l11.9485,87.3893c.3983,3.0953,3.0383,5.4167,6.1905,5.4167h72.3968c3.1408,0,5.8036-2.3214,6.2019-5.4167l11.7551-87.3893h1.4338c3.4139,0,6.1791-2.7539,6.1791-6.145s-2.7652-6.1564-6.1791-6.1564h0ZM41.4946,135.1934c-2.4693,0-4.5063-3.0383-4.6428-6.9415l-1.8322-63.0542c-.1365-4.0511,1.8208-7.5219,4.3926-7.7495.099-.0102.1977-.0152.2956-.0153,2.4122-.0002,4.4669,3.0518,4.609,6.934l1.8321,63.0656c.1365,4.0511-1.8321,7.5219-4.3925,7.7609h-.2618ZM64.3534,135.1934c-2.5604,0-4.6542-3.2886-4.6542-7.3398v-63.0657c0-4.0511,2.0938-7.3512,4.6542-7.3512,2.5718,0,4.6542,3.3,4.6542,7.3512v63.0657c0,4.0511-2.0824,7.3398-4.6542,7.3398h0ZM86.9504,135.1934c-2.5718-.2389-4.529-3.7097-4.3925-7.7609l1.8321-63.0656s.1025-6.896,4.916-6.9187c.0035,0,.0071,0,.0106,0,4.8137,0,4.3706,7.7495,4.3706,7.7495l-1.8322,63.0542c-.1365,3.9032-2.1735,6.9415-4.6428,6.9415h-.2618Z"/>
    </g>
  </g>
  <g>
    <path class="cls-2" d="M3.6768,32.6614c-.687,0-1.3735-.2793-1.8809-.7676-.5259-.5264-.7959-1.1816-.7959-1.9111v-1.2529c.0273-5.8877,4.8267-10.6738,10.6982-10.6738l33.0298.0752.606-7.4629c.0386-2.4536,1.0469-4.8179,2.8354-6.5933,1.8257-1.811,4.2427-2.8086,6.8066-2.8086l19.6865.0376c2.562,0,4.979.9976,6.8042,2.8086,1.8154,1.8296,2.7866,4.1968,2.814,6.8516l.5674,7.2305,33.0298.0498c2.8447.0137,5.5225,1.127,7.5439,3.1338,2.0176,2.0312,3.127,4.7207,3.127,7.5771v1.2402c0,1.4766-1.2021,2.6787-2.6787,2.6787l-122.1934-.2129ZM76.2432,14.5852c-.0381-.4395-.2495-3.3125-.2729-3.5522-.0044-.4707-.1328-.793-.3857-1.0532-.2529-.2451-.5796-.3857-.9238-.3857l-19.6855-.0376c-.3652.0005-.6831.1333-.9458.396-.252.2598-.3965.5908-.3965.9219,0,.2871-.1826,2.5693-.2705,3.6484l22.8809.0625Z"/>
    <path d="M54.9761,2.2664l19.6844.0375c2.3054,0,4.4732.9022,6.102,2.5185,1.6163,1.6289,2.4934,3.7339,2.5185,6.1522l.5763,7.38c.0376.4761.4261.8396.8897.8396l33.1289.0501c2.5811.0125,5.0119,1.0275,6.8413,2.8443,1.8293,1.8419,2.8317,4.2852,2.8317,6.8663v1.2404c0,.9147-.7643,1.679-1.6789,1.679l-122.191-.2131c-.451,0-.877-.1879-1.1903-.4886-.3258-.3258-.4887-.7393-.4887-1.1903v-1.253c.0251-5.3126,4.3478-9.6731,9.6981-9.6731l33.1163.0752h.0251c.4636,0,.852-.3633.8771-.8269l.6139-7.5554c.0376-2.2554.9397-4.373,2.5435-5.9642,1.6289-1.6164,3.7966-2.5185,6.102-2.5185M76.3394,15.5856c.2506,0,.4887-.1128.6641-.2882.1629-.1879.2506-.4385.2381-.6891,0,0-.2506-3.4081-.2757-3.6712,0-.6265-.2255-1.2029-.664-1.6539-.4511-.4385-1.0275-.6891-1.6414-.6891l-19.6844-.0375c-.6265,0-1.2028.238-1.6539.6891-.4385.4511-.6891,1.0275-.6891,1.6289,0,.2882-.2756,3.6712-.2756,3.6712-.0125.2632.0752.5137.2381.6891.1629.188.4134.2882.664.2882l23.0799.0626M54.9799.2664h-.0038c-2.8296,0-5.497,1.1005-7.5108,3.0989-1.9589,1.9436-3.0701,4.5278-3.1331,7.283l-.5266,6.4809-32.1029-.0728C5.2781,17.0563.0304,22.2886,0,28.7199v1.2624c0,.9867.3816,1.9117,1.0745,2.6046.7316.7029,1.6462,1.0744,2.6044,1.0744l122.1875.2131c2.0321,0,3.6824-1.6504,3.6824-3.679v-1.2404c0-3.1209-1.212-6.0599-3.4126-8.2757-2.2185-2.2034-5.1452-3.4198-8.2506-3.4349l-32.1127-.0486-.4929-6.3122c-.0467-2.8919-1.117-5.4737-3.0978-7.4699-2.0248-2.0093-4.6921-3.1098-7.5217-3.1098l-19.6806-.0375h0ZM54.446,13.5262c.1242-1.5621.187-2.4524.187-2.6518,0-.0677.046-.1554.1231-.2347.066-.0657.1381-.0833.2199-.0833l19.6806.0375c.0913,0,.172.0521.2294.103.0434.05.0798.1172.0798.2401v.0951l.009.0947c.0135.1452.1017,1.3248.1855,2.4556l-20.7144-.0562h0Z"/>
  </g>
</svg>