<?xml version="1.0" encoding="UTF-8"?>
<svg id="eye_1" data-name="eye 1" xmlns="http://www.w3.org/2000/svg" viewBox="0 0 99.8844 91.5394">
  <defs>
    <style>
      .cls-1 {
        fill: #bdbdbd;
      }

      .cls-2 {
        fill: #5e5f5f;
      }

      .cls-3 {
        fill: #f8aa24;
      }

      .cls-4 {
        fill: #010101;
        stroke: #5e5f5f;
        stroke-miterlimit: 10;
        stroke-width: 3px;
      }
    </style>
  </defs>
  <g id="on">
    <g>
      <polygon class="cls-3" points="45.7738 .9999 54.0902 .9999 54.0902 22.3866 45.7738 22.43 45.7738 .9999"/>
      <path d="M53.0903,2v19.3918l-6.3165.0327V2h6.3165M55.0903,0h-10.3165v23.4348l2.0104-.0104,6.3165-.0327,1.9896-.0103V0h0Z"/>
    </g>
    <g>
      <polygon class="cls-3" points="79.4466 29.4379 91.2826 12.1493 98.3788 17.0077 86.5663 34.2621 79.4466 29.4379"/>
      <path d="M91.5427,13.5396l5.4459,3.7284-10.6854,15.6076-5.4639-3.7021,10.7034-15.6339M91.0223,10.7595l-1.1298,1.6503-10.7034,15.6339-1.1353,1.6583,1.6638,1.1273,5.4639,3.7021,1.6478,1.1164,1.1244-1.6423,10.6854-15.6076,1.1298-1.6503-1.6503-1.1298-5.4459-3.7284-1.6503-1.1298h0Z"/>
    </g>
    <g>
      <polygon class="cls-3" points="1.4852 17.0077 8.5814 12.1493 20.4173 29.4379 13.2977 34.2621 1.4852 17.0077"/>
      <path d="M8.3212,13.5396l10.7034,15.6339-5.4639,3.7021L2.8753,17.268l5.4459-3.7284M8.8417,10.7595l-1.6503,1.1298-5.4459,3.7284-1.6503,1.1298,1.1298,1.6503,10.6854,15.6076,1.1244,1.6423,1.6478-1.1164,5.4639-3.7021,1.6638-1.1273-1.1353-1.6583-10.7034-15.6339-1.1298-1.6503h0Z"/>
    </g>
    <g>
      <path d="M49.932,83.1312c-18.3086,0-35.4512-9.9019-44.7378-25.8413l-.333-.668.3481-.6968c9.29-16.0542,26.4326-26.0439,44.7227-26.0439,18.335,0,35.4771,9.9473,44.7373,25.9604l.3335.6694-.3481.6968c-9.2476,15.98-26.3896,25.9233-44.7227,25.9233Z"/>
      <path d="M49.932,30.3814c18.1474,0,35.1151,9.841,44.2892,25.6845l.2227.4455-.2227.4455c-9.1763,15.8375-26.144,25.6745-44.2892,25.6745-18.1216,0-35.0891-9.7946-44.2899-25.5659l-.222-.4441.2227-.4454c9.2191-15.9115,26.1869-25.7946,44.2893-25.7946M49.932,29.3814c-18.51,0-35.86,10.23-45.17,26.3199l-.46.92.46.92c9.31,15.98,26.55,26.09,45.17,26.09s35.86-10.11,45.17-26.2l.46-.92-.46-.92c-9.31-16.1-26.66-26.21-45.17-26.21h0Z"/>
    </g>
    <path class="cls-1" d="M91.4985,56.5109l-.4191.8381c-8.4809,14.6571-24.1856,23.8668-41.1475,23.8668s-32.6666-9.2097-41.1475-23.7666l-.4191-.8381.4191-.8381c8.4809-14.6571,24.2858-23.9761,41.1475-23.9761s32.6666,9.2097,41.1475,23.8759l.4191.8381Z"/>
    <g>
      <path class="cls-2" d="M49.932,76.1966c-11.0088,0-19.9648-8.9565-19.9648-19.9653s8.9561-19.9751,19.9648-19.9751,19.9648,8.9609,19.9648,19.9751-8.9561,19.9653-19.9648,19.9653Z"/>
      <path d="M49.932,37.2562c10.4574,0,18.9651,8.5123,18.9651,18.9753,0,10.4574-8.5077,18.9651-18.9651,18.9651s-18.9651-8.5077-18.9651-18.9651c0-10.463,8.5077-18.9753,18.9651-18.9753M49.932,35.2562c-11.5543,0-20.9651,9.4108-20.9651,20.9753,0,11.6768,9.4108,20.9651,20.9651,20.9651s20.9651-9.4006,20.9651-20.9651-9.4108-20.9753-20.9651-20.9753h0Z"/>
    </g>
    <path class="cls-4" d="M62.1194,56.2328c0,6.6991-5.4794,12.1873-12.1873,12.1873s-12.1873-5.4883-12.1873-12.1873c0-1.9355.5038-3.6589,1.2196-5.285.707.8131,1.7234,1.2196,2.8369,1.2196,2.2359,0,4.0654-1.8294,4.0654-4.0654,0-1.1136-.5038-2.1299-1.2196-2.8458,1.6262-.8131,3.3583-1.2196,5.285-1.2196,6.7079,0,12.1873,5.4883,12.1873,12.1961Z"/>
    <circle class="cls-1" cx="43.3941" cy="49.686" r="5.2175"/>
  </g>
</svg>