<?xml version="1.0" encoding="UTF-8"?>
<svg id="eye_1" data-name="eye 1" xmlns="http://www.w3.org/2000/svg" viewBox="0 0 99.6736 91.5394">
  <defs>
    <style>
      .cls-1 {
        fill: #bdbdbd;
      }

      .cls-2 {
        fill: #5e5f5f;
      }

      .cls-3 {
        fill: #010101;
      }
    </style>
  </defs>
  <g id="off">
    <g>
      <path class="cls-1" d="M49.8417,89.3094c-1.2871-.0088-2.4937-.5171-3.3979-1.4312-.9058-.915-1.3994-2.1279-1.3906-3.415v-14.5068c0-.2744.1128-.5366.3115-.7256.1865-.1768.4331-.2744.6885-.2744.0176,0,.0352.0005.0527.0015,1.0762.0566,2.1895.1152,3.3193.1294,1.4028-.0146,2.8101-.0723,4.1597-.1719.0249-.002.0493-.0029.0737-.0029.2515,0,.4951.0947.6807.2671.2036.1895.3193.4551.3193.7329v14.5576c0,1.27-.4912,2.4819-1.3833,3.4121-.9468.9282-2.1558,1.4272-3.4268,1.4272h-.0068Z"/>
      <path class="cls-3" d="M53.6588,69.9127v14.5574c0,1.0179-.4072,1.9924-1.1053,2.7195-.7271.7126-1.6869,1.1197-2.705,1.1197-2.1087-.0146-3.8102-1.7306-3.7957-3.8393v-14.5138c1.1053.0582,2.2106.1164,3.3594.1309,1.4397-.0145,2.8649-.0727,4.2465-.1745M53.6589,67.9127c-.0489,0-.0979.0018-.1471.0054-1.3312.0981-2.7173.155-4.1197.1692-1.0656-.014-2.1679-.0721-3.234-.1283-.0351-.0019-.0703-.0028-.1053-.0028-.5108,0-1.0039.1956-1.3764.5491-.3981.3776-.6235.9022-.6235,1.4509v14.5138c-.0107,1.5409.5859,3.0061,1.68,4.1117,1.0917,1.1033,2.5485,1.7168,4.1019,1.7275,1.5479,0,3.0057-.6006,4.1186-1.6913.0145-.0142.0289-.0287.043-.0434,1.0721-1.1168,1.6625-2.5745,1.6625-4.1045v-14.5574c0-.556-.2314-1.0869-.6387-1.4653-.3712-.3449-.8581-.5347-1.3612-.5347h0Z"/>
    </g>
    <g>
      <path class="cls-1" d="M84.8309,78.1439c-2.3247,0-4-1.8252-4.0703-1.9028l-10.856-11.5005c-.1904-.2017-.2886-.4731-.271-.75s.1494-.5337.3638-.7095l5.6606-4.6455c.1855-.1523.4102-.2271.6338-.2271.27,0,.5386.1089.7354.3218l10.8472,11.75c1.0708.9873,2.5273,3.7036-.021,6.52-.043.0474-.0903.0908-.1416.1289-.897.6733-1.8662,1.0146-2.8809,1.0146Z"/>
      <path class="cls-3" d="M76.2925,59.4087l10.8468,11.75s2.531,2.3434-.0279,5.1707c-.7952.5968-1.5714.8143-2.2805.8143-1.9068,0-3.3281-1.5729-3.3281-1.5729l-10.8711-11.5164,5.6608-4.6455M76.2918,57.4087c-.4475,0-.897.1495-1.2681.454l-5.6608,4.6455c-.4286.3518-.692.8657-.7272,1.4191-.0352.5534.161,1.0966.5416,1.4998l10.8711,11.5164c.1769.1965,2.0658,2.2001,4.7825,2.2001,1.2358,0,2.407-.4087,3.4809-1.2146.1021-.0767.1967-.1629.2824-.2576,2.8124-3.1073,1.5402-6.4076-.0313-7.9191l-10.801-11.7003c-.393-.4257-.9302-.6434-1.4703-.6434h0Z"/>
    </g>
    <g>
      <path class="cls-1" d="M14.9184,78.1439c-1.0142-.0005-1.9834-.3418-2.8804-1.0146-.0513-.0381-.0986-.0815-.1416-.1289-2.5483-2.8164-1.0918-5.5327.0347-6.5757l10.7915-11.6943c.1968-.2129.4653-.3218.7354-.3218.2236,0,.4482.0747.6338.2271l5.6606,4.6455c.2144.1758.3462.4326.3638.7095s-.0806.5483-.271.75l-10.8711,11.5166c-.0552.0615-1.7305,1.8867-4.0547,1.8867h-.001Z"/>
      <path class="cls-3" d="M23.4572,59.4087l5.6608,4.6455-10.8711,11.5164s-1.4213,1.5729-3.3281,1.5729c-.7091,0-1.4853-.2175-2.2805-.8143-2.5589-2.8273-.0279-5.1707-.0279-5.1707l10.8468-11.75M23.458,57.4087c-.5402,0-1.0773.2177-1.4703.6434l-10.801,11.7003c-1.5715,1.5115-2.8436,4.8117-.0313,7.9191.0857.0947.1802.1809.2824.2576,1.074.806,2.2451,1.2146,3.4809,1.2146,2.7167,0,4.6056-2.0036,4.8121-2.2321l10.8416-11.4844c.3806-.4032.5768-.9464.5416-1.4998-.0352-.5534-.2985-1.0673-.7272-1.4191l-5.6608-4.6455c-.371-.3045-.8206-.454-1.2681-.454h0Z"/>
    </g>
  </g>
  <g>
    <path class="cls-2" d="M49.5219,72.1004c-.8027-.0103-1.5854-.0469-2.3594-.0947-2.6611-.1655-5.292-.5537-7.8198-1.1553-.4097-.0972-.8179-.1973-1.2173-.3042-12.4146-3.3232-21.5527-12.1235-23.3218-14.2988-1.7593-2.1626-4.6602-6.3765-4.9404-6.8394l-.0635-.1021c-3.145-4.9565-.5161-7.3853.7603-8.1997.9575-.6108,1.9014-.9209,2.8052-.9209,2.3159,0,3.6514,1.9458,4.3687,2.9907.103.1504.1934.2827.2725.3857,5.5303,8.4556,17.1167,18.2544,31.7212,18.2544h.1064c16.2002-.2144,27.6016-11.5234,31.7827-18.1724,1.6792-2.6709,3.4473-3.9688,5.4048-3.9688,1.0044,0,2.0156.3613,3.0059,1.0747,1.3604.9795,3.1543,3.3872-.1157,8.5029,0,0-.1245.1978-.1406.2197-1.4434,2.3784-3.1167,4.6514-4.9741,6.7578-.0039.0098-1.251,1.6494-3.7065,3.8643-2.2271,2.0078-5.9443,4.9082-11.0088,7.3262-6.3306,3.022-13.2397,4.5962-20.5361,4.6797h-.0234Z"/>
    <path class="cls-3" d="M87.0216,40.6749c.7477,0,1.5552.2624,2.4213.8863,3.0863,2.223-.1279,6.7328-.4852,7.3294h-.0033c-1.4491,2.3964-3.0948,4.6225-4.9077,6.678,0,0-1.2132,1.6069-3.6265,3.7833-2.3972,2.1619-5.9861,4.8831-10.7697,7.1665-5.2618,2.5117-11.9612,4.4887-20.1165,4.582-.7853-.0099-1.5519-.0457-2.31-.0928-2.7265-.1693-5.2784-.566-7.65-1.1298-.4009-.0953-.7995-.1927-1.1901-.2971-.0099-.0026-.0202-.005-.0301-.0077-11.9652-3.2033-21.0403-11.8248-22.7741-13.9566-1.7338-2.1318-4.6259-6.3383-4.8605-6.7258-.3371-.5578-3.2186-4.646.3785-6.941.8571-.5468,1.6089-.7641,2.2675-.764,2.1053,0,3.2576,2.2199,3.8495,2.987,5.781,8.8458,17.5891,18.6439,32.5154,18.6439.0356,0,.0713,0,.107-.0002,16.0376-.212,27.9729-11.2408,32.6261-18.6403,1.1179-1.7777,2.6421-3.5012,4.5586-3.5012M87.0216,38.6749c-2.297,0-4.4004,1.4926-6.2516,4.4365-4.0736,6.4778-15.1784,17.4965-30.9595,17.7052h-.0805c-14.2076,0-25.4936-9.5554-30.8412-17.738-.0286-.0437-.0589-.0863-.0908-.1277-.07-.0907-.1488-.208-.2397-.3405-.7629-1.1116-2.3504-3.4247-5.1932-3.4247-1.0972,0-2.2221.3627-3.3433,1.078-1.1926.7609-4.794,3.7001-1.0676,9.5772l.0532.0845c.2878.4752,3.2423,4.7668,5.0205,6.9531,1.8124,2.2284,11.1648,11.2416,23.8085,14.6266.0098.0026.0401.0104.05.0129.3896.1042.8061.2061,1.225.3057,2.5846.6145,5.2723,1.0115,7.9886,1.1802.9119.0566,1.6773.0873,2.4088.0965,7.4909-.0852,14.5412-1.6924,21.0033-4.777,5.1739-2.4697,8.9722-5.4342,11.2476-7.4862,2.276-2.0526,3.5591-3.6469,3.8304-3.9949,1.8732-2.1296,3.5617-4.4253,5.0208-6.826.0218-.0319.0427-.0646.0627-.098l.0794-.1251c3.7152-5.81,1.5063-8.6681-.1411-9.8547-1.1639-.8384-2.3718-1.2634-3.5902-1.2634h0Z"/>
  </g>
</svg>